<?xml version="1.0" encoding="utf-8" standalone="no"?>
<!DOCTYPE svg PUBLIC "-//W3C//DTD SVG 1.1//EN"
  "http://www.w3.org/Graphics/SVG/1.1/DTD/svg11.dtd">
<svg xmlns:xlink="http://www.w3.org/1999/xlink" width="710.251875pt" height="422.761812pt" viewBox="0 0 710.251875 422.761812" xmlns="http://www.w3.org/2000/svg" version="1.1">
 <metadata>
  <rdf:RDF xmlns:dc="http://purl.org/dc/elements/1.1/" xmlns:cc="http://creativecommons.org/ns#" xmlns:rdf="http://www.w3.org/1999/02/22-rdf-syntax-ns#">
   <cc:Work>
    <dc:type rdf:resource="http://purl.org/dc/dcmitype/StillImage"/>
    <dc:date>2025-10-27T21:30:20.866440</dc:date>
    <dc:format>image/svg+xml</dc:format>
    <dc:creator>
     <cc:Agent>
      <dc:title>Matplotlib v3.9.0, https://matplotlib.org/</dc:title>
     </cc:Agent>
    </dc:creator>
   </cc:Work>
  </rdf:RDF>
 </metadata>
 <defs>
  <style type="text/css">*{stroke-linejoin: round; stroke-linecap: butt}</style>
 </defs>
 <g id="figure_1">
  <g id="patch_1">
   <path d="M 0 422.761812 
L 710.251875 422.761812 
L 710.251875 0 
L 0 0 
z
" style="fill: #ffffff"/>
  </g>
  <g id="axes_1">
   <g id="patch_2">
    <path d="M 60.336875 383.269937 
L 703.051875 383.269937 
L 703.051875 23.229937 
L 60.336875 23.229937 
z
" style="fill: #ffffff"/>
   </g>
   <g id="patch_3">
    <path d="M 89.551193 383.269937 
L 104.158352 383.269937 
L 104.158352 41.448484 
L 89.551193 41.448484 
z
" clip-path="url(#p52bab3639f)" style="fill: #6e7781; opacity: 0.65; stroke: #ffffff; stroke-linejoin: miter"/>
   </g>
   <g id="patch_4">
    <path d="M 104.158352 383.269937 
L 118.765511 383.269937 
L 118.765511 61.492465 
L 104.158352 61.492465 
z
" clip-path="url(#p52bab3639f)" style="fill: #6e7781; opacity: 0.65; stroke: #ffffff; stroke-linejoin: miter"/>
   </g>
   <g id="patch_5">
    <path d="M 118.765511 383.269937 
L 133.37267 383.269937 
L 133.37267 64.713819 
L 118.765511 64.713819 
z
" clip-path="url(#p52bab3639f)" style="fill: #6e7781; opacity: 0.65; stroke: #ffffff; stroke-linejoin: miter"/>
   </g>
   <g id="patch_6">
    <path d="M 133.37267 383.269937 
L 147.97983 383.269937 
L 147.97983 48.964977 
L 133.37267 48.964977 
z
" clip-path="url(#p52bab3639f)" style="fill: #6e7781; opacity: 0.65; stroke: #ffffff; stroke-linejoin: miter"/>
   </g>
   <g id="patch_7">
    <path d="M 147.97983 383.269937 
L 162.586989 383.269937 
L 162.586989 78.315091 
L 147.97983 78.315091 
z
" clip-path="url(#p52bab3639f)" style="fill: #6e7781; opacity: 0.65; stroke: #ffffff; stroke-linejoin: miter"/>
   </g>
   <g id="patch_8">
    <path d="M 162.586989 383.269937 
L 177.194148 383.269937 
L 177.194148 66.50346 
L 162.586989 66.50346 
z
" clip-path="url(#p52bab3639f)" style="fill: #6e7781; opacity: 0.65; stroke: #ffffff; stroke-linejoin: miter"/>
   </g>
   <g id="patch_9">
    <path d="M 177.194148 383.269937 
L 191.801307 383.269937 
L 191.801307 45.743623 
L 177.194148 45.743623 
z
" clip-path="url(#p52bab3639f)" style="fill: #6e7781; opacity: 0.65; stroke: #ffffff; stroke-linejoin: miter"/>
   </g>
   <g id="patch_10">
    <path d="M 191.801307 383.269937 
L 206.408466 383.269937 
L 206.408466 51.112546 
L 191.801307 51.112546 
z
" clip-path="url(#p52bab3639f)" style="fill: #6e7781; opacity: 0.65; stroke: #ffffff; stroke-linejoin: miter"/>
   </g>
   <g id="patch_11">
    <path d="M 206.408466 383.269937 
L 221.015625 383.269937 
L 221.015625 65.787603 
L 206.408466 65.787603 
z
" clip-path="url(#p52bab3639f)" style="fill: #6e7781; opacity: 0.65; stroke: #ffffff; stroke-linejoin: miter"/>
   </g>
   <g id="patch_12">
    <path d="M 221.015625 383.269937 
L 235.622784 383.269937 
L 235.622784 60.060752 
L 221.015625 60.060752 
z
" clip-path="url(#p52bab3639f)" style="fill: #6e7781; opacity: 0.65; stroke: #ffffff; stroke-linejoin: miter"/>
   </g>
   <g id="patch_13">
    <path d="M 235.622784 383.269937 
L 250.229943 383.269937 
L 250.229943 48.607049 
L 235.622784 48.607049 
z
" clip-path="url(#p52bab3639f)" style="fill: #6e7781; opacity: 0.65; stroke: #ffffff; stroke-linejoin: miter"/>
   </g>
   <g id="patch_14">
    <path d="M 250.229943 383.269937 
L 264.837102 383.269937 
L 264.837102 74.019952 
L 250.229943 74.019952 
z
" clip-path="url(#p52bab3639f)" style="fill: #6e7781; opacity: 0.65; stroke: #ffffff; stroke-linejoin: miter"/>
   </g>
   <g id="patch_15">
    <path d="M 264.837102 383.269937 
L 279.444261 383.269937 
L 279.444261 58.271111 
L 264.837102 58.271111 
z
" clip-path="url(#p52bab3639f)" style="fill: #6e7781; opacity: 0.65; stroke: #ffffff; stroke-linejoin: miter"/>
   </g>
   <g id="patch_16">
    <path d="M 279.444261 383.269937 
L 294.05142 383.269937 
L 294.05142 40.374699 
L 279.444261 40.374699 
z
" clip-path="url(#p52bab3639f)" style="fill: #6e7781; opacity: 0.65; stroke: #ffffff; stroke-linejoin: miter"/>
   </g>
   <g id="patch_17">
    <path d="M 294.05142 383.269937 
L 308.65858 383.269937 
L 308.65858 86.189512 
L 294.05142 86.189512 
z
" clip-path="url(#p52bab3639f)" style="fill: #6e7781; opacity: 0.65; stroke: #ffffff; stroke-linejoin: miter"/>
   </g>
   <g id="patch_18">
    <path d="M 308.65858 383.269937 
L 323.265739 383.269937 
L 323.265739 56.123541 
L 308.65858 56.123541 
z
" clip-path="url(#p52bab3639f)" style="fill: #6e7781; opacity: 0.65; stroke: #ffffff; stroke-linejoin: miter"/>
   </g>
   <g id="patch_19">
    <path d="M 323.265739 383.269937 
L 337.872898 383.269937 
L 337.872898 74.019952 
L 323.265739 74.019952 
z
" clip-path="url(#p52bab3639f)" style="fill: #6e7781; opacity: 0.65; stroke: #ffffff; stroke-linejoin: miter"/>
   </g>
   <g id="patch_20">
    <path d="M 337.872898 383.269937 
L 352.480057 383.269937 
L 352.480057 65.071747 
L 337.872898 65.071747 
z
" clip-path="url(#p52bab3639f)" style="fill: #6e7781; opacity: 0.65; stroke: #ffffff; stroke-linejoin: miter"/>
   </g>
   <g id="patch_21">
    <path d="M 352.480057 383.269937 
L 367.087216 383.269937 
L 367.087216 44.31191 
L 352.480057 44.31191 
z
" clip-path="url(#p52bab3639f)" style="fill: #6e7781; opacity: 0.65; stroke: #ffffff; stroke-linejoin: miter"/>
   </g>
   <g id="patch_22">
    <path d="M 367.087216 383.269937 
L 381.694375 383.269937 
L 381.694375 50.39669 
L 367.087216 50.39669 
z
" clip-path="url(#p52bab3639f)" style="fill: #6e7781; opacity: 0.65; stroke: #ffffff; stroke-linejoin: miter"/>
   </g>
   <g id="patch_23">
    <path d="M 381.694375 383.269937 
L 396.301534 383.269937 
L 396.301534 51.470474 
L 381.694375 51.470474 
z
" clip-path="url(#p52bab3639f)" style="fill: #6e7781; opacity: 0.65; stroke: #ffffff; stroke-linejoin: miter"/>
   </g>
   <g id="patch_24">
    <path d="M 396.301534 383.269937 
L 410.908693 383.269937 
L 410.908693 68.293101 
L 396.301534 68.293101 
z
" clip-path="url(#p52bab3639f)" style="fill: #6e7781; opacity: 0.65; stroke: #ffffff; stroke-linejoin: miter"/>
   </g>
   <g id="patch_25">
    <path d="M 410.908693 383.269937 
L 425.515852 383.269937 
L 425.515852 61.850393 
L 410.908693 61.850393 
z
" clip-path="url(#p52bab3639f)" style="fill: #6e7781; opacity: 0.65; stroke: #ffffff; stroke-linejoin: miter"/>
   </g>
   <g id="patch_26">
    <path d="M 425.515852 383.269937 
L 440.123011 383.269937 
L 440.123011 48.24912 
L 425.515852 48.24912 
z
" clip-path="url(#p52bab3639f)" style="fill: #6e7781; opacity: 0.65; stroke: #ffffff; stroke-linejoin: miter"/>
   </g>
   <g id="patch_27">
    <path d="M 440.123011 383.269937 
L 454.73017 383.269937 
L 454.73017 52.544259 
L 440.123011 52.544259 
z
" clip-path="url(#p52bab3639f)" style="fill: #6e7781; opacity: 0.65; stroke: #ffffff; stroke-linejoin: miter"/>
   </g>
   <g id="patch_28">
    <path d="M 454.73017 383.269937 
L 469.33733 383.269937 
L 469.33733 70.798598 
L 454.73017 70.798598 
z
" clip-path="url(#p52bab3639f)" style="fill: #6e7781; opacity: 0.65; stroke: #ffffff; stroke-linejoin: miter"/>
   </g>
   <g id="patch_29">
    <path d="M 469.33733 383.269937 
L 483.944489 383.269937 
L 483.944489 75.093737 
L 469.33733 75.093737 
z
" clip-path="url(#p52bab3639f)" style="fill: #6e7781; opacity: 0.65; stroke: #ffffff; stroke-linejoin: miter"/>
   </g>
   <g id="patch_30">
    <path d="M 483.944489 383.269937 
L 498.551648 383.269937 
L 498.551648 56.481469 
L 483.944489 56.481469 
z
" clip-path="url(#p52bab3639f)" style="fill: #6e7781; opacity: 0.65; stroke: #ffffff; stroke-linejoin: miter"/>
   </g>
   <g id="patch_31">
    <path d="M 498.551648 383.269937 
L 513.158807 383.269937 
L 513.158807 67.935173 
L 498.551648 67.935173 
z
" clip-path="url(#p52bab3639f)" style="fill: #6e7781; opacity: 0.65; stroke: #ffffff; stroke-linejoin: miter"/>
   </g>
   <g id="patch_32">
    <path d="M 513.158807 383.269937 
L 527.765966 383.269937 
L 527.765966 52.544259 
L 513.158807 52.544259 
z
" clip-path="url(#p52bab3639f)" style="fill: #6e7781; opacity: 0.65; stroke: #ffffff; stroke-linejoin: miter"/>
   </g>
   <g id="patch_33">
    <path d="M 527.765966 383.269937 
L 542.373125 383.269937 
L 542.373125 41.448484 
L 527.765966 41.448484 
z
" clip-path="url(#p52bab3639f)" style="fill: #6e7781; opacity: 0.65; stroke: #ffffff; stroke-linejoin: miter"/>
   </g>
   <g id="patch_34">
    <path d="M 542.373125 383.269937 
L 556.980284 383.269937 
L 556.980284 44.669838 
L 542.373125 44.669838 
z
" clip-path="url(#p52bab3639f)" style="fill: #6e7781; opacity: 0.65; stroke: #ffffff; stroke-linejoin: miter"/>
   </g>
   <g id="patch_35">
    <path d="M 556.980284 383.269937 
L 571.587443 383.269937 
L 571.587443 56.481469 
L 556.980284 56.481469 
z
" clip-path="url(#p52bab3639f)" style="fill: #6e7781; opacity: 0.65; stroke: #ffffff; stroke-linejoin: miter"/>
   </g>
   <g id="patch_36">
    <path d="M 571.587443 383.269937 
L 586.194602 383.269937 
L 586.194602 42.164341 
L 571.587443 42.164341 
z
" clip-path="url(#p52bab3639f)" style="fill: #6e7781; opacity: 0.65; stroke: #ffffff; stroke-linejoin: miter"/>
   </g>
   <g id="patch_37">
    <path d="M 586.194602 383.269937 
L 600.801761 383.269937 
L 600.801761 62.924177 
L 586.194602 62.924177 
z
" clip-path="url(#p52bab3639f)" style="fill: #6e7781; opacity: 0.65; stroke: #ffffff; stroke-linejoin: miter"/>
   </g>
   <g id="patch_38">
    <path d="M 600.801761 383.269937 
L 615.40892 383.269937 
L 615.40892 55.049757 
L 600.801761 55.049757 
z
" clip-path="url(#p52bab3639f)" style="fill: #6e7781; opacity: 0.65; stroke: #ffffff; stroke-linejoin: miter"/>
   </g>
   <g id="patch_39">
    <path d="M 615.40892 383.269937 
L 630.01608 383.269937 
L 630.01608 66.50346 
L 615.40892 66.50346 
z
" clip-path="url(#p52bab3639f)" style="fill: #6e7781; opacity: 0.65; stroke: #ffffff; stroke-linejoin: miter"/>
   </g>
   <g id="patch_40">
    <path d="M 630.01608 383.269937 
L 644.623239 383.269937 
L 644.623239 65.071747 
L 630.01608 65.071747 
z
" clip-path="url(#p52bab3639f)" style="fill: #6e7781; opacity: 0.65; stroke: #ffffff; stroke-linejoin: miter"/>
   </g>
   <g id="patch_41">
    <path d="M 644.623239 383.269937 
L 659.230398 383.269937 
L 659.230398 73.304096 
L 644.623239 73.304096 
z
" clip-path="url(#p52bab3639f)" style="fill: #6e7781; opacity: 0.65; stroke: #ffffff; stroke-linejoin: miter"/>
   </g>
   <g id="patch_42">
    <path d="M 659.230398 383.269937 
L 673.837557 383.269937 
L 673.837557 67.219316 
L 659.230398 67.219316 
z
" clip-path="url(#p52bab3639f)" style="fill: #6e7781; opacity: 0.65; stroke: #ffffff; stroke-linejoin: miter"/>
   </g>
   <g id="patch_43">
    <path d="M 89.551193 383.269937 
L 104.158352 383.269937 
L 104.158352 71.872383 
L 89.551193 71.872383 
z
" clip-path="url(#p52bab3639f)" style="fill: #1f6feb; opacity: 0.65; stroke: #ffffff; stroke-linejoin: miter"/>
   </g>
   <g id="patch_44">
    <path d="M 104.158352 383.269937 
L 118.765511 383.269937 
L 118.765511 92.274292 
L 104.158352 92.274292 
z
" clip-path="url(#p52bab3639f)" style="fill: #1f6feb; opacity: 0.65; stroke: #ffffff; stroke-linejoin: miter"/>
   </g>
   <g id="patch_45">
    <path d="M 118.765511 383.269937 
L 133.37267 383.269937 
L 133.37267 96.211502 
L 118.765511 96.211502 
z
" clip-path="url(#p52bab3639f)" style="fill: #1f6feb; opacity: 0.65; stroke: #ffffff; stroke-linejoin: miter"/>
   </g>
   <g id="patch_46">
    <path d="M 133.37267 383.269937 
L 147.97983 383.269937 
L 147.97983 83.684014 
L 133.37267 83.684014 
z
" clip-path="url(#p52bab3639f)" style="fill: #1f6feb; opacity: 0.65; stroke: #ffffff; stroke-linejoin: miter"/>
   </g>
   <g id="patch_47">
    <path d="M 147.97983 383.269937 
L 162.586989 383.269937 
L 162.586989 113.034129 
L 147.97983 113.034129 
z
" clip-path="url(#p52bab3639f)" style="fill: #1f6feb; opacity: 0.65; stroke: #ffffff; stroke-linejoin: miter"/>
   </g>
   <g id="patch_48">
    <path d="M 162.586989 383.269937 
L 177.194148 383.269937 
L 177.194148 103.727995 
L 162.586989 103.727995 
z
" clip-path="url(#p52bab3639f)" style="fill: #1f6feb; opacity: 0.65; stroke: #ffffff; stroke-linejoin: miter"/>
   </g>
   <g id="patch_49">
    <path d="M 177.194148 383.269937 
L 191.801307 383.269937 
L 191.801307 74.735809 
L 177.194148 74.735809 
z
" clip-path="url(#p52bab3639f)" style="fill: #1f6feb; opacity: 0.65; stroke: #ffffff; stroke-linejoin: miter"/>
   </g>
   <g id="patch_50">
    <path d="M 191.801307 383.269937 
L 206.408466 383.269937 
L 206.408466 79.388876 
L 191.801307 79.388876 
z
" clip-path="url(#p52bab3639f)" style="fill: #1f6feb; opacity: 0.65; stroke: #ffffff; stroke-linejoin: miter"/>
   </g>
   <g id="patch_51">
    <path d="M 206.408466 383.269937 
L 221.015625 383.269937 
L 221.015625 93.706005 
L 206.408466 93.706005 
z
" clip-path="url(#p52bab3639f)" style="fill: #1f6feb; opacity: 0.65; stroke: #ffffff; stroke-linejoin: miter"/>
   </g>
   <g id="patch_52">
    <path d="M 221.015625 383.269937 
L 235.622784 383.269937 
L 235.622784 92.990148 
L 221.015625 92.990148 
z
" clip-path="url(#p52bab3639f)" style="fill: #1f6feb; opacity: 0.65; stroke: #ffffff; stroke-linejoin: miter"/>
   </g>
   <g id="patch_53">
    <path d="M 235.622784 383.269937 
L 250.229943 383.269937 
L 250.229943 81.894373 
L 235.622784 81.894373 
z
" clip-path="url(#p52bab3639f)" style="fill: #1f6feb; opacity: 0.65; stroke: #ffffff; stroke-linejoin: miter"/>
   </g>
   <g id="patch_54">
    <path d="M 250.229943 383.269937 
L 264.837102 383.269937 
L 264.837102 104.80178 
L 250.229943 104.80178 
z
" clip-path="url(#p52bab3639f)" style="fill: #1f6feb; opacity: 0.65; stroke: #ffffff; stroke-linejoin: miter"/>
   </g>
   <g id="patch_55">
    <path d="M 264.837102 383.269937 
L 279.444261 383.269937 
L 279.444261 87.979153 
L 264.837102 87.979153 
z
" clip-path="url(#p52bab3639f)" style="fill: #1f6feb; opacity: 0.65; stroke: #ffffff; stroke-linejoin: miter"/>
   </g>
   <g id="patch_56">
    <path d="M 279.444261 383.269937 
L 294.05142 383.269937 
L 294.05142 74.377881 
L 279.444261 74.377881 
z
" clip-path="url(#p52bab3639f)" style="fill: #1f6feb; opacity: 0.65; stroke: #ffffff; stroke-linejoin: miter"/>
   </g>
   <g id="patch_57">
    <path d="M 294.05142 383.269937 
L 308.65858 383.269937 
L 308.65858 111.960344 
L 294.05142 111.960344 
z
" clip-path="url(#p52bab3639f)" style="fill: #1f6feb; opacity: 0.65; stroke: #ffffff; stroke-linejoin: miter"/>
   </g>
   <g id="patch_58">
    <path d="M 308.65858 383.269937 
L 323.265739 383.269937 
L 323.265739 95.137718 
L 308.65858 95.137718 
z
" clip-path="url(#p52bab3639f)" style="fill: #1f6feb; opacity: 0.65; stroke: #ffffff; stroke-linejoin: miter"/>
   </g>
   <g id="patch_59">
    <path d="M 323.265739 383.269937 
L 337.872898 383.269937 
L 337.872898 107.307277 
L 323.265739 107.307277 
z
" clip-path="url(#p52bab3639f)" style="fill: #1f6feb; opacity: 0.65; stroke: #ffffff; stroke-linejoin: miter"/>
   </g>
   <g id="patch_60">
    <path d="M 337.872898 383.269937 
L 352.480057 383.269937 
L 352.480057 90.484651 
L 337.872898 90.484651 
z
" clip-path="url(#p52bab3639f)" style="fill: #1f6feb; opacity: 0.65; stroke: #ffffff; stroke-linejoin: miter"/>
   </g>
   <g id="patch_61">
    <path d="M 352.480057 383.269937 
L 367.087216 383.269937 
L 367.087216 76.167522 
L 352.480057 76.167522 
z
" clip-path="url(#p52bab3639f)" style="fill: #1f6feb; opacity: 0.65; stroke: #ffffff; stroke-linejoin: miter"/>
   </g>
   <g id="patch_62">
    <path d="M 367.087216 383.269937 
L 381.694375 383.269937 
L 381.694375 81.536445 
L 367.087216 81.536445 
z
" clip-path="url(#p52bab3639f)" style="fill: #1f6feb; opacity: 0.65; stroke: #ffffff; stroke-linejoin: miter"/>
   </g>
   <g id="patch_63">
    <path d="M 381.694375 383.269937 
L 396.301534 383.269937 
L 396.301534 83.326086 
L 381.694375 83.326086 
z
" clip-path="url(#p52bab3639f)" style="fill: #1f6feb; opacity: 0.65; stroke: #ffffff; stroke-linejoin: miter"/>
   </g>
   <g id="patch_64">
    <path d="M 396.301534 383.269937 
L 410.908693 383.269937 
L 410.908693 103.370067 
L 396.301534 103.370067 
z
" clip-path="url(#p52bab3639f)" style="fill: #1f6feb; opacity: 0.65; stroke: #ffffff; stroke-linejoin: miter"/>
   </g>
   <g id="patch_65">
    <path d="M 410.908693 383.269937 
L 425.515852 383.269937 
L 425.515852 94.421861 
L 410.908693 94.421861 
z
" clip-path="url(#p52bab3639f)" style="fill: #1f6feb; opacity: 0.65; stroke: #ffffff; stroke-linejoin: miter"/>
   </g>
   <g id="patch_66">
    <path d="M 425.515852 383.269937 
L 440.123011 383.269937 
L 440.123011 80.820589 
L 425.515852 80.820589 
z
" clip-path="url(#p52bab3639f)" style="fill: #1f6feb; opacity: 0.65; stroke: #ffffff; stroke-linejoin: miter"/>
   </g>
   <g id="patch_67">
    <path d="M 440.123011 383.269937 
L 454.73017 383.269937 
L 454.73017 79.746804 
L 440.123011 79.746804 
z
" clip-path="url(#p52bab3639f)" style="fill: #1f6feb; opacity: 0.65; stroke: #ffffff; stroke-linejoin: miter"/>
   </g>
   <g id="patch_68">
    <path d="M 454.73017 383.269937 
L 469.33733 383.269937 
L 469.33733 107.307277 
L 454.73017 107.307277 
z
" clip-path="url(#p52bab3639f)" style="fill: #1f6feb; opacity: 0.65; stroke: #ffffff; stroke-linejoin: miter"/>
   </g>
   <g id="patch_69">
    <path d="M 469.33733 383.269937 
L 483.944489 383.269937 
L 483.944489 106.233493 
L 469.33733 106.233493 
z
" clip-path="url(#p52bab3639f)" style="fill: #1f6feb; opacity: 0.65; stroke: #ffffff; stroke-linejoin: miter"/>
   </g>
   <g id="patch_70">
    <path d="M 483.944489 383.269937 
L 498.551648 383.269937 
L 498.551648 85.831584 
L 483.944489 85.831584 
z
" clip-path="url(#p52bab3639f)" style="fill: #1f6feb; opacity: 0.65; stroke: #ffffff; stroke-linejoin: miter"/>
   </g>
   <g id="patch_71">
    <path d="M 498.551648 383.269937 
L 513.158807 383.269937 
L 513.158807 95.853574 
L 498.551648 95.853574 
z
" clip-path="url(#p52bab3639f)" style="fill: #1f6feb; opacity: 0.65; stroke: #ffffff; stroke-linejoin: miter"/>
   </g>
   <g id="patch_72">
    <path d="M 513.158807 383.269937 
L 527.765966 383.269937 
L 527.765966 88.69501 
L 513.158807 88.69501 
z
" clip-path="url(#p52bab3639f)" style="fill: #1f6feb; opacity: 0.65; stroke: #ffffff; stroke-linejoin: miter"/>
   </g>
   <g id="patch_73">
    <path d="M 527.765966 383.269937 
L 542.373125 383.269937 
L 542.373125 76.167522 
L 527.765966 76.167522 
z
" clip-path="url(#p52bab3639f)" style="fill: #1f6feb; opacity: 0.65; stroke: #ffffff; stroke-linejoin: miter"/>
   </g>
   <g id="patch_74">
    <path d="M 542.373125 383.269937 
L 556.980284 383.269937 
L 556.980284 74.377881 
L 542.373125 74.377881 
z
" clip-path="url(#p52bab3639f)" style="fill: #1f6feb; opacity: 0.65; stroke: #ffffff; stroke-linejoin: miter"/>
   </g>
   <g id="patch_75">
    <path d="M 556.980284 383.269937 
L 571.587443 383.269937 
L 571.587443 89.052938 
L 556.980284 89.052938 
z
" clip-path="url(#p52bab3639f)" style="fill: #1f6feb; opacity: 0.65; stroke: #ffffff; stroke-linejoin: miter"/>
   </g>
   <g id="patch_76">
    <path d="M 571.587443 383.269937 
L 586.194602 383.269937 
L 586.194602 74.735809 
L 571.587443 74.735809 
z
" clip-path="url(#p52bab3639f)" style="fill: #1f6feb; opacity: 0.65; stroke: #ffffff; stroke-linejoin: miter"/>
   </g>
   <g id="patch_77">
    <path d="M 586.194602 383.269937 
L 600.801761 383.269937 
L 600.801761 99.790785 
L 586.194602 99.790785 
z
" clip-path="url(#p52bab3639f)" style="fill: #1f6feb; opacity: 0.65; stroke: #ffffff; stroke-linejoin: miter"/>
   </g>
   <g id="patch_78">
    <path d="M 600.801761 383.269937 
L 615.40892 383.269937 
L 615.40892 91.916364 
L 600.801761 91.916364 
z
" clip-path="url(#p52bab3639f)" style="fill: #1f6feb; opacity: 0.65; stroke: #ffffff; stroke-linejoin: miter"/>
   </g>
   <g id="patch_79">
    <path d="M 615.40892 383.269937 
L 630.01608 383.269937 
L 630.01608 99.432856 
L 615.40892 99.432856 
z
" clip-path="url(#p52bab3639f)" style="fill: #1f6feb; opacity: 0.65; stroke: #ffffff; stroke-linejoin: miter"/>
   </g>
   <g id="patch_80">
    <path d="M 630.01608 383.269937 
L 644.623239 383.269937 
L 644.623239 90.842579 
L 630.01608 90.842579 
z
" clip-path="url(#p52bab3639f)" style="fill: #1f6feb; opacity: 0.65; stroke: #ffffff; stroke-linejoin: miter"/>
   </g>
   <g id="patch_81">
    <path d="M 644.623239 383.269937 
L 659.230398 383.269937 
L 659.230398 105.875564 
L 644.623239 105.875564 
z
" clip-path="url(#p52bab3639f)" style="fill: #1f6feb; opacity: 0.65; stroke: #ffffff; stroke-linejoin: miter"/>
   </g>
   <g id="patch_82">
    <path d="M 659.230398 383.269937 
L 673.837557 383.269937 
L 673.837557 96.56943 
L 659.230398 96.56943 
z
" clip-path="url(#p52bab3639f)" style="fill: #1f6feb; opacity: 0.65; stroke: #ffffff; stroke-linejoin: miter"/>
   </g>
   <g id="matplotlib.axis_1">
    <g id="xtick_1">
     <g id="line2d_1">
      <path d="M 89.551193 383.269937 
L 89.551193 23.229937 
" clip-path="url(#p52bab3639f)" style="fill: none; stroke: #e5e7eb; stroke-width: 0.8; stroke-linecap: square"/>
     </g>
     <g id="line2d_2">
      <defs>
       <path id="ma0b2044844" d="M 0 0 
L 0 3.5 
" style="stroke: #374151; stroke-width: 0.8"/>
      </defs>
      <g>
       <use xlink:href="#ma0b2044844" x="89.551193" y="383.269937" style="fill: #374151; stroke: #374151; stroke-width: 0.8"/>
      </g>
     </g>
     <g id="text_1">
      <!-- 0 -->
      <g style="fill: #374151" transform="translate(86.051818 398.628219) scale(0.11 -0.11)">
       <defs>
        <path id="DejaVuSans-30" d="M 2034 4250 
Q 1547 4250 1301 3770 
Q 1056 3291 1056 2328 
Q 1056 1369 1301 889 
Q 1547 409 2034 409 
Q 2525 409 2770 889 
Q 3016 1369 3016 2328 
Q 3016 3291 2770 3770 
Q 2525 4250 2034 4250 
z
M 2034 4750 
Q 2819 4750 3233 4129 
Q 3647 3509 3647 2328 
Q 3647 1150 3233 529 
Q 2819 -91 2034 -91 
Q 1250 -91 836 529 
Q 422 1150 422 2328 
Q 422 3509 836 4129 
Q 1250 4750 2034 4750 
z
" transform="scale(0.015625)"/>
       </defs>
       <use xlink:href="#DejaVuSans-30"/>
      </g>
     </g>
    </g>
    <g id="xtick_2">
     <g id="line2d_3">
      <path d="M 206.408466 383.269937 
L 206.408466 23.229937 
" clip-path="url(#p52bab3639f)" style="fill: none; stroke: #e5e7eb; stroke-width: 0.8; stroke-linecap: square"/>
     </g>
     <g id="line2d_4">
      <g>
       <use xlink:href="#ma0b2044844" x="206.408466" y="383.269937" style="fill: #374151; stroke: #374151; stroke-width: 0.8"/>
      </g>
     </g>
     <g id="text_2">
      <!-- 20 -->
      <g style="fill: #374151" transform="translate(199.409716 398.628219) scale(0.11 -0.11)">
       <defs>
        <path id="DejaVuSans-32" d="M 1228 531 
L 3431 531 
L 3431 0 
L 469 0 
L 469 531 
Q 828 903 1448 1529 
Q 2069 2156 2228 2338 
Q 2531 2678 2651 2914 
Q 2772 3150 2772 3378 
Q 2772 3750 2511 3984 
Q 2250 4219 1831 4219 
Q 1534 4219 1204 4116 
Q 875 4013 500 3803 
L 500 4441 
Q 881 4594 1212 4672 
Q 1544 4750 1819 4750 
Q 2544 4750 2975 4387 
Q 3406 4025 3406 3419 
Q 3406 3131 3298 2873 
Q 3191 2616 2906 2266 
Q 2828 2175 2409 1742 
Q 1991 1309 1228 531 
z
" transform="scale(0.015625)"/>
       </defs>
       <use xlink:href="#DejaVuSans-32"/>
       <use xlink:href="#DejaVuSans-30" x="63.623047"/>
      </g>
     </g>
    </g>
    <g id="xtick_3">
     <g id="line2d_5">
      <path d="M 323.265739 383.269937 
L 323.265739 23.229937 
" clip-path="url(#p52bab3639f)" style="fill: none; stroke: #e5e7eb; stroke-width: 0.8; stroke-linecap: square"/>
     </g>
     <g id="line2d_6">
      <g>
       <use xlink:href="#ma0b2044844" x="323.265739" y="383.269937" style="fill: #374151; stroke: #374151; stroke-width: 0.8"/>
      </g>
     </g>
     <g id="text_3">
      <!-- 40 -->
      <g style="fill: #374151" transform="translate(316.266989 398.628219) scale(0.11 -0.11)">
       <defs>
        <path id="DejaVuSans-34" d="M 2419 4116 
L 825 1625 
L 2419 1625 
L 2419 4116 
z
M 2253 4666 
L 3047 4666 
L 3047 1625 
L 3713 1625 
L 3713 1100 
L 3047 1100 
L 3047 0 
L 2419 0 
L 2419 1100 
L 313 1100 
L 313 1709 
L 2253 4666 
z
" transform="scale(0.015625)"/>
       </defs>
       <use xlink:href="#DejaVuSans-34"/>
       <use xlink:href="#DejaVuSans-30" x="63.623047"/>
      </g>
     </g>
    </g>
    <g id="xtick_4">
     <g id="line2d_7">
      <path d="M 440.123011 383.269937 
L 440.123011 23.229937 
" clip-path="url(#p52bab3639f)" style="fill: none; stroke: #e5e7eb; stroke-width: 0.8; stroke-linecap: square"/>
     </g>
     <g id="line2d_8">
      <g>
       <use xlink:href="#ma0b2044844" x="440.123011" y="383.269937" style="fill: #374151; stroke: #374151; stroke-width: 0.8"/>
      </g>
     </g>
     <g id="text_4">
      <!-- 60 -->
      <g style="fill: #374151" transform="translate(433.124261 398.628219) scale(0.11 -0.11)">
       <defs>
        <path id="DejaVuSans-36" d="M 2113 2584 
Q 1688 2584 1439 2293 
Q 1191 2003 1191 1497 
Q 1191 994 1439 701 
Q 1688 409 2113 409 
Q 2538 409 2786 701 
Q 3034 994 3034 1497 
Q 3034 2003 2786 2293 
Q 2538 2584 2113 2584 
z
M 3366 4563 
L 3366 3988 
Q 3128 4100 2886 4159 
Q 2644 4219 2406 4219 
Q 1781 4219 1451 3797 
Q 1122 3375 1075 2522 
Q 1259 2794 1537 2939 
Q 1816 3084 2150 3084 
Q 2853 3084 3261 2657 
Q 3669 2231 3669 1497 
Q 3669 778 3244 343 
Q 2819 -91 2113 -91 
Q 1303 -91 875 529 
Q 447 1150 447 2328 
Q 447 3434 972 4092 
Q 1497 4750 2381 4750 
Q 2619 4750 2861 4703 
Q 3103 4656 3366 4563 
z
" transform="scale(0.015625)"/>
       </defs>
       <use xlink:href="#DejaVuSans-36"/>
       <use xlink:href="#DejaVuSans-30" x="63.623047"/>
      </g>
     </g>
    </g>
    <g id="xtick_5">
     <g id="line2d_9">
      <path d="M 556.980284 383.269937 
L 556.980284 23.229937 
" clip-path="url(#p52bab3639f)" style="fill: none; stroke: #e5e7eb; stroke-width: 0.8; stroke-linecap: square"/>
     </g>
     <g id="line2d_10">
      <g>
       <use xlink:href="#ma0b2044844" x="556.980284" y="383.269937" style="fill: #374151; stroke: #374151; stroke-width: 0.8"/>
      </g>
     </g>
     <g id="text_5">
      <!-- 80 -->
      <g style="fill: #374151" transform="translate(549.981534 398.628219) scale(0.11 -0.11)">
       <defs>
        <path id="DejaVuSans-38" d="M 2034 2216 
Q 1584 2216 1326 1975 
Q 1069 1734 1069 1313 
Q 1069 891 1326 650 
Q 1584 409 2034 409 
Q 2484 409 2743 651 
Q 3003 894 3003 1313 
Q 3003 1734 2745 1975 
Q 2488 2216 2034 2216 
z
M 1403 2484 
Q 997 2584 770 2862 
Q 544 3141 544 3541 
Q 544 4100 942 4425 
Q 1341 4750 2034 4750 
Q 2731 4750 3128 4425 
Q 3525 4100 3525 3541 
Q 3525 3141 3298 2862 
Q 3072 2584 2669 2484 
Q 3125 2378 3379 2068 
Q 3634 1759 3634 1313 
Q 3634 634 3220 271 
Q 2806 -91 2034 -91 
Q 1263 -91 848 271 
Q 434 634 434 1313 
Q 434 1759 690 2068 
Q 947 2378 1403 2484 
z
M 1172 3481 
Q 1172 3119 1398 2916 
Q 1625 2713 2034 2713 
Q 2441 2713 2670 2916 
Q 2900 3119 2900 3481 
Q 2900 3844 2670 4047 
Q 2441 4250 2034 4250 
Q 1625 4250 1398 4047 
Q 1172 3844 1172 3481 
z
" transform="scale(0.015625)"/>
       </defs>
       <use xlink:href="#DejaVuSans-38"/>
       <use xlink:href="#DejaVuSans-30" x="63.623047"/>
      </g>
     </g>
    </g>
    <g id="xtick_6">
     <g id="line2d_11">
      <path d="M 673.837557 383.269937 
L 673.837557 23.229937 
" clip-path="url(#p52bab3639f)" style="fill: none; stroke: #e5e7eb; stroke-width: 0.8; stroke-linecap: square"/>
     </g>
     <g id="line2d_12">
      <g>
       <use xlink:href="#ma0b2044844" x="673.837557" y="383.269937" style="fill: #374151; stroke: #374151; stroke-width: 0.8"/>
      </g>
     </g>
     <g id="text_6">
      <!-- 100 -->
      <g style="fill: #374151" transform="translate(663.339432 398.628219) scale(0.11 -0.11)">
       <defs>
        <path id="DejaVuSans-31" d="M 794 531 
L 1825 531 
L 1825 4091 
L 703 3866 
L 703 4441 
L 1819 4666 
L 2450 4666 
L 2450 531 
L 3481 531 
L 3481 0 
L 794 0 
L 794 531 
z
" transform="scale(0.015625)"/>
       </defs>
       <use xlink:href="#DejaVuSans-31"/>
       <use xlink:href="#DejaVuSans-30" x="63.623047"/>
       <use xlink:href="#DejaVuSans-30" x="127.246094"/>
      </g>
     </g>
    </g>
    <g id="text_7">
     <!-- Valor -->
     <g style="fill: #111827" transform="translate(367.833516 413.274156) scale(0.11 -0.11)">
      <defs>
       <path id="DejaVuSans-56" d="M 1831 0 
L 50 4666 
L 709 4666 
L 2188 738 
L 3669 4666 
L 4325 4666 
L 2547 0 
L 1831 0 
z
" transform="scale(0.015625)"/>
       <path id="DejaVuSans-61" d="M 2194 1759 
Q 1497 1759 1228 1600 
Q 959 1441 959 1056 
Q 959 750 1161 570 
Q 1363 391 1709 391 
Q 2188 391 2477 730 
Q 2766 1069 2766 1631 
L 2766 1759 
L 2194 1759 
z
M 3341 1997 
L 3341 0 
L 2766 0 
L 2766 531 
Q 2569 213 2275 61 
Q 1981 -91 1556 -91 
Q 1019 -91 701 211 
Q 384 513 384 1019 
Q 384 1609 779 1909 
Q 1175 2209 1959 2209 
L 2766 2209 
L 2766 2266 
Q 2766 2663 2505 2880 
Q 2244 3097 1772 3097 
Q 1472 3097 1187 3025 
Q 903 2953 641 2809 
L 641 3341 
Q 956 3463 1253 3523 
Q 1550 3584 1831 3584 
Q 2591 3584 2966 3190 
Q 3341 2797 3341 1997 
z
" transform="scale(0.015625)"/>
       <path id="DejaVuSans-6c" d="M 603 4863 
L 1178 4863 
L 1178 0 
L 603 0 
L 603 4863 
z
" transform="scale(0.015625)"/>
       <path id="DejaVuSans-6f" d="M 1959 3097 
Q 1497 3097 1228 2736 
Q 959 2375 959 1747 
Q 959 1119 1226 758 
Q 1494 397 1959 397 
Q 2419 397 2687 759 
Q 2956 1122 2956 1747 
Q 2956 2369 2687 2733 
Q 2419 3097 1959 3097 
z
M 1959 3584 
Q 2709 3584 3137 3096 
Q 3566 2609 3566 1747 
Q 3566 888 3137 398 
Q 2709 -91 1959 -91 
Q 1206 -91 779 398 
Q 353 888 353 1747 
Q 353 2609 779 3096 
Q 1206 3584 1959 3584 
z
" transform="scale(0.015625)"/>
       <path id="DejaVuSans-72" d="M 2631 2963 
Q 2534 3019 2420 3045 
Q 2306 3072 2169 3072 
Q 1681 3072 1420 2755 
Q 1159 2438 1159 1844 
L 1159 0 
L 581 0 
L 581 3500 
L 1159 3500 
L 1159 2956 
Q 1341 3275 1631 3429 
Q 1922 3584 2338 3584 
Q 2397 3584 2469 3576 
Q 2541 3569 2628 3553 
L 2631 2963 
z
" transform="scale(0.015625)"/>
      </defs>
      <use xlink:href="#DejaVuSans-56"/>
      <use xlink:href="#DejaVuSans-61" x="60.658203"/>
      <use xlink:href="#DejaVuSans-6c" x="121.9375"/>
      <use xlink:href="#DejaVuSans-6f" x="149.720703"/>
      <use xlink:href="#DejaVuSans-72" x="210.902344"/>
     </g>
    </g>
   </g>
   <g id="matplotlib.axis_2">
    <g id="ytick_1">
     <g id="line2d_13">
      <path d="M 60.336875 383.269937 
L 703.051875 383.269937 
" clip-path="url(#p52bab3639f)" style="fill: none; stroke: #e5e7eb; stroke-width: 0.8; stroke-linecap: square"/>
     </g>
     <g id="line2d_14">
      <defs>
       <path id="m43efd0cf93" d="M 0 0 
L -3.5 0 
" style="stroke: #374151; stroke-width: 0.8"/>
      </defs>
      <g>
       <use xlink:href="#m43efd0cf93" x="60.336875" y="383.269937" style="fill: #374151; stroke: #374151; stroke-width: 0.8"/>
      </g>
     </g>
     <g id="text_8">
      <!-- 0 -->
      <g style="fill: #374151" transform="translate(46.338125 387.449078) scale(0.11 -0.11)">
       <use xlink:href="#DejaVuSans-30"/>
      </g>
     </g>
    </g>
    <g id="ytick_2">
     <g id="line2d_15">
      <path d="M 60.336875 311.684293 
L 703.051875 311.684293 
" clip-path="url(#p52bab3639f)" style="fill: none; stroke: #e5e7eb; stroke-width: 0.8; stroke-linecap: square"/>
     </g>
     <g id="line2d_16">
      <g>
       <use xlink:href="#m43efd0cf93" x="60.336875" y="311.684293" style="fill: #374151; stroke: #374151; stroke-width: 0.8"/>
      </g>
     </g>
     <g id="text_9">
      <!-- 200 -->
      <g style="fill: #374151" transform="translate(32.340625 315.863433) scale(0.11 -0.11)">
       <use xlink:href="#DejaVuSans-32"/>
       <use xlink:href="#DejaVuSans-30" x="63.623047"/>
       <use xlink:href="#DejaVuSans-30" x="127.246094"/>
      </g>
     </g>
    </g>
    <g id="ytick_3">
     <g id="line2d_17">
      <path d="M 60.336875 240.098648 
L 703.051875 240.098648 
" clip-path="url(#p52bab3639f)" style="fill: none; stroke: #e5e7eb; stroke-width: 0.8; stroke-linecap: square"/>
     </g>
     <g id="line2d_18">
      <g>
       <use xlink:href="#m43efd0cf93" x="60.336875" y="240.098648" style="fill: #374151; stroke: #374151; stroke-width: 0.8"/>
      </g>
     </g>
     <g id="text_10">
      <!-- 400 -->
      <g style="fill: #374151" transform="translate(32.340625 244.277789) scale(0.11 -0.11)">
       <use xlink:href="#DejaVuSans-34"/>
       <use xlink:href="#DejaVuSans-30" x="63.623047"/>
       <use xlink:href="#DejaVuSans-30" x="127.246094"/>
      </g>
     </g>
    </g>
    <g id="ytick_4">
     <g id="line2d_19">
      <path d="M 60.336875 168.513003 
L 703.051875 168.513003 
" clip-path="url(#p52bab3639f)" style="fill: none; stroke: #e5e7eb; stroke-width: 0.8; stroke-linecap: square"/>
     </g>
     <g id="line2d_20">
      <g>
       <use xlink:href="#m43efd0cf93" x="60.336875" y="168.513003" style="fill: #374151; stroke: #374151; stroke-width: 0.8"/>
      </g>
     </g>
     <g id="text_11">
      <!-- 600 -->
      <g style="fill: #374151" transform="translate(32.340625 172.692144) scale(0.11 -0.11)">
       <use xlink:href="#DejaVuSans-36"/>
       <use xlink:href="#DejaVuSans-30" x="63.623047"/>
       <use xlink:href="#DejaVuSans-30" x="127.246094"/>
      </g>
     </g>
    </g>
    <g id="ytick_5">
     <g id="line2d_21">
      <path d="M 60.336875 96.927359 
L 703.051875 96.927359 
" clip-path="url(#p52bab3639f)" style="fill: none; stroke: #e5e7eb; stroke-width: 0.8; stroke-linecap: square"/>
     </g>
     <g id="line2d_22">
      <g>
       <use xlink:href="#m43efd0cf93" x="60.336875" y="96.927359" style="fill: #374151; stroke: #374151; stroke-width: 0.8"/>
      </g>
     </g>
     <g id="text_12">
      <!-- 800 -->
      <g style="fill: #374151" transform="translate(32.340625 101.106499) scale(0.11 -0.11)">
       <use xlink:href="#DejaVuSans-38"/>
       <use xlink:href="#DejaVuSans-30" x="63.623047"/>
       <use xlink:href="#DejaVuSans-30" x="127.246094"/>
      </g>
     </g>
    </g>
    <g id="ytick_6">
     <g id="line2d_23">
      <path d="M 60.336875 25.341714 
L 703.051875 25.341714 
" clip-path="url(#p52bab3639f)" style="fill: none; stroke: #e5e7eb; stroke-width: 0.8; stroke-linecap: square"/>
     </g>
     <g id="line2d_24">
      <g>
       <use xlink:href="#m43efd0cf93" x="60.336875" y="25.341714" style="fill: #374151; stroke: #374151; stroke-width: 0.8"/>
      </g>
     </g>
     <g id="text_13">
      <!-- 1 000 -->
      <g style="fill: #374151" transform="translate(21.845938 29.520855) scale(0.11 -0.11)">
       <defs>
        <path id="DejaVuSans-20" transform="scale(0.015625)"/>
       </defs>
       <use xlink:href="#DejaVuSans-31"/>
       <use xlink:href="#DejaVuSans-20" x="63.623047"/>
       <use xlink:href="#DejaVuSans-30" x="95.410156"/>
       <use xlink:href="#DejaVuSans-30" x="159.033203"/>
       <use xlink:href="#DejaVuSans-30" x="222.65625"/>
      </g>
     </g>
    </g>
    <g id="text_14">
     <!-- Frecuencia -->
     <g style="fill: #111827" transform="translate(15.558281 232.838219) rotate(-90) scale(0.11 -0.11)">
      <defs>
       <path id="DejaVuSans-46" d="M 628 4666 
L 3309 4666 
L 3309 4134 
L 1259 4134 
L 1259 2759 
L 3109 2759 
L 3109 2228 
L 1259 2228 
L 1259 0 
L 628 0 
L 628 4666 
z
" transform="scale(0.015625)"/>
       <path id="DejaVuSans-65" d="M 3597 1894 
L 3597 1613 
L 953 1613 
Q 991 1019 1311 708 
Q 1631 397 2203 397 
Q 2534 397 2845 478 
Q 3156 559 3463 722 
L 3463 178 
Q 3153 47 2828 -22 
Q 2503 -91 2169 -91 
Q 1331 -91 842 396 
Q 353 884 353 1716 
Q 353 2575 817 3079 
Q 1281 3584 2069 3584 
Q 2775 3584 3186 3129 
Q 3597 2675 3597 1894 
z
M 3022 2063 
Q 3016 2534 2758 2815 
Q 2500 3097 2075 3097 
Q 1594 3097 1305 2825 
Q 1016 2553 972 2059 
L 3022 2063 
z
" transform="scale(0.015625)"/>
       <path id="DejaVuSans-63" d="M 3122 3366 
L 3122 2828 
Q 2878 2963 2633 3030 
Q 2388 3097 2138 3097 
Q 1578 3097 1268 2742 
Q 959 2388 959 1747 
Q 959 1106 1268 751 
Q 1578 397 2138 397 
Q 2388 397 2633 464 
Q 2878 531 3122 666 
L 3122 134 
Q 2881 22 2623 -34 
Q 2366 -91 2075 -91 
Q 1284 -91 818 406 
Q 353 903 353 1747 
Q 353 2603 823 3093 
Q 1294 3584 2113 3584 
Q 2378 3584 2631 3529 
Q 2884 3475 3122 3366 
z
" transform="scale(0.015625)"/>
       <path id="DejaVuSans-75" d="M 544 1381 
L 544 3500 
L 1119 3500 
L 1119 1403 
Q 1119 906 1312 657 
Q 1506 409 1894 409 
Q 2359 409 2629 706 
Q 2900 1003 2900 1516 
L 2900 3500 
L 3475 3500 
L 3475 0 
L 2900 0 
L 2900 538 
Q 2691 219 2414 64 
Q 2138 -91 1772 -91 
Q 1169 -91 856 284 
Q 544 659 544 1381 
z
M 1991 3584 
L 1991 3584 
z
" transform="scale(0.015625)"/>
       <path id="DejaVuSans-6e" d="M 3513 2113 
L 3513 0 
L 2938 0 
L 2938 2094 
Q 2938 2591 2744 2837 
Q 2550 3084 2163 3084 
Q 1697 3084 1428 2787 
Q 1159 2491 1159 1978 
L 1159 0 
L 581 0 
L 581 3500 
L 1159 3500 
L 1159 2956 
Q 1366 3272 1645 3428 
Q 1925 3584 2291 3584 
Q 2894 3584 3203 3211 
Q 3513 2838 3513 2113 
z
" transform="scale(0.015625)"/>
       <path id="DejaVuSans-69" d="M 603 3500 
L 1178 3500 
L 1178 0 
L 603 0 
L 603 3500 
z
M 603 4863 
L 1178 4863 
L 1178 4134 
L 603 4134 
L 603 4863 
z
" transform="scale(0.015625)"/>
      </defs>
      <use xlink:href="#DejaVuSans-46"/>
      <use xlink:href="#DejaVuSans-72" x="50.269531"/>
      <use xlink:href="#DejaVuSans-65" x="89.132812"/>
      <use xlink:href="#DejaVuSans-63" x="150.65625"/>
      <use xlink:href="#DejaVuSans-75" x="205.636719"/>
      <use xlink:href="#DejaVuSans-65" x="269.015625"/>
      <use xlink:href="#DejaVuSans-6e" x="330.539062"/>
      <use xlink:href="#DejaVuSans-63" x="393.917969"/>
      <use xlink:href="#DejaVuSans-69" x="448.898438"/>
      <use xlink:href="#DejaVuSans-61" x="476.681641"/>
     </g>
    </g>
   </g>
   <g id="patch_83">
    <path d="M 60.336875 383.269937 
L 60.336875 23.229937 
" style="fill: none; stroke: #e5e7eb; stroke-width: 0.8; stroke-linejoin: miter; stroke-linecap: square"/>
   </g>
   <g id="patch_84">
    <path d="M 703.051875 383.269937 
L 703.051875 23.229937 
" style="fill: none; stroke: #e5e7eb; stroke-width: 0.8; stroke-linejoin: miter; stroke-linecap: square"/>
   </g>
   <g id="patch_85">
    <path d="M 60.336875 383.269937 
L 703.051875 383.269937 
" style="fill: none; stroke: #e5e7eb; stroke-width: 0.8; stroke-linejoin: miter; stroke-linecap: square"/>
   </g>
   <g id="patch_86">
    <path d="M 60.336875 23.229937 
L 703.051875 23.229937 
" style="fill: none; stroke: #e5e7eb; stroke-width: 0.8; stroke-linejoin: miter; stroke-linecap: square"/>
   </g>
   <g id="text_15">
    <!-- Distribución de valores — RAW vs CLEANED -->
    <g style="fill: #111827" transform="translate(220.143906 17.229937) scale(0.132 -0.132)">
     <defs>
      <path id="DejaVuSans-Bold-44" d="M 1791 3756 
L 1791 909 
L 2222 909 
Q 2959 909 3348 1275 
Q 3738 1641 3738 2338 
Q 3738 3031 3350 3393 
Q 2963 3756 2222 3756 
L 1791 3756 
z
M 588 4666 
L 1856 4666 
Q 2919 4666 3439 4514 
Q 3959 4363 4331 4000 
Q 4659 3684 4818 3271 
Q 4978 2859 4978 2338 
Q 4978 1809 4818 1395 
Q 4659 981 4331 666 
Q 3956 303 3431 151 
Q 2906 0 1856 0 
L 588 0 
L 588 4666 
z
" transform="scale(0.015625)"/>
      <path id="DejaVuSans-Bold-69" d="M 538 3500 
L 1656 3500 
L 1656 0 
L 538 0 
L 538 3500 
z
M 538 4863 
L 1656 4863 
L 1656 3950 
L 538 3950 
L 538 4863 
z
" transform="scale(0.015625)"/>
      <path id="DejaVuSans-Bold-73" d="M 3272 3391 
L 3272 2541 
Q 2913 2691 2578 2766 
Q 2244 2841 1947 2841 
Q 1628 2841 1473 2761 
Q 1319 2681 1319 2516 
Q 1319 2381 1436 2309 
Q 1553 2238 1856 2203 
L 2053 2175 
Q 2913 2066 3209 1816 
Q 3506 1566 3506 1031 
Q 3506 472 3093 190 
Q 2681 -91 1863 -91 
Q 1516 -91 1145 -36 
Q 775 19 384 128 
L 384 978 
Q 719 816 1070 734 
Q 1422 653 1784 653 
Q 2113 653 2278 743 
Q 2444 834 2444 1013 
Q 2444 1163 2330 1236 
Q 2216 1309 1875 1350 
L 1678 1375 
Q 931 1469 631 1722 
Q 331 1975 331 2491 
Q 331 3047 712 3315 
Q 1094 3584 1881 3584 
Q 2191 3584 2531 3537 
Q 2872 3491 3272 3391 
z
" transform="scale(0.015625)"/>
      <path id="DejaVuSans-Bold-74" d="M 1759 4494 
L 1759 3500 
L 2913 3500 
L 2913 2700 
L 1759 2700 
L 1759 1216 
Q 1759 972 1856 886 
Q 1953 800 2241 800 
L 2816 800 
L 2816 0 
L 1856 0 
Q 1194 0 917 276 
Q 641 553 641 1216 
L 641 2700 
L 84 2700 
L 84 3500 
L 641 3500 
L 641 4494 
L 1759 4494 
z
" transform="scale(0.015625)"/>
      <path id="DejaVuSans-Bold-72" d="M 3138 2547 
Q 2991 2616 2845 2648 
Q 2700 2681 2553 2681 
Q 2122 2681 1889 2404 
Q 1656 2128 1656 1613 
L 1656 0 
L 538 0 
L 538 3500 
L 1656 3500 
L 1656 2925 
Q 1872 3269 2151 3426 
Q 2431 3584 2822 3584 
Q 2878 3584 2943 3579 
Q 3009 3575 3134 3559 
L 3138 2547 
z
" transform="scale(0.015625)"/>
      <path id="DejaVuSans-Bold-62" d="M 2400 722 
Q 2759 722 2948 984 
Q 3138 1247 3138 1747 
Q 3138 2247 2948 2509 
Q 2759 2772 2400 2772 
Q 2041 2772 1848 2508 
Q 1656 2244 1656 1747 
Q 1656 1250 1848 986 
Q 2041 722 2400 722 
z
M 1656 2988 
Q 1888 3294 2169 3439 
Q 2450 3584 2816 3584 
Q 3463 3584 3878 3070 
Q 4294 2556 4294 1747 
Q 4294 938 3878 423 
Q 3463 -91 2816 -91 
Q 2450 -91 2169 54 
Q 1888 200 1656 506 
L 1656 0 
L 538 0 
L 538 4863 
L 1656 4863 
L 1656 2988 
z
" transform="scale(0.015625)"/>
      <path id="DejaVuSans-Bold-75" d="M 500 1363 
L 500 3500 
L 1625 3500 
L 1625 3150 
Q 1625 2866 1622 2436 
Q 1619 2006 1619 1863 
Q 1619 1441 1641 1255 
Q 1663 1069 1716 984 
Q 1784 875 1895 815 
Q 2006 756 2150 756 
Q 2500 756 2700 1025 
Q 2900 1294 2900 1772 
L 2900 3500 
L 4019 3500 
L 4019 0 
L 2900 0 
L 2900 506 
Q 2647 200 2364 54 
Q 2081 -91 1741 -91 
Q 1134 -91 817 281 
Q 500 653 500 1363 
z
" transform="scale(0.015625)"/>
      <path id="DejaVuSans-Bold-63" d="M 3366 3391 
L 3366 2478 
Q 3138 2634 2908 2709 
Q 2678 2784 2431 2784 
Q 1963 2784 1702 2511 
Q 1441 2238 1441 1747 
Q 1441 1256 1702 982 
Q 1963 709 2431 709 
Q 2694 709 2930 787 
Q 3166 866 3366 1019 
L 3366 103 
Q 3103 6 2833 -42 
Q 2563 -91 2291 -91 
Q 1344 -91 809 395 
Q 275 881 275 1747 
Q 275 2613 809 3098 
Q 1344 3584 2291 3584 
Q 2566 3584 2833 3536 
Q 3100 3488 3366 3391 
z
" transform="scale(0.015625)"/>
      <path id="DejaVuSans-Bold-f3" d="M 2203 2784 
Q 1831 2784 1636 2517 
Q 1441 2250 1441 1747 
Q 1441 1244 1636 976 
Q 1831 709 2203 709 
Q 2569 709 2762 976 
Q 2956 1244 2956 1747 
Q 2956 2250 2762 2517 
Q 2569 2784 2203 2784 
z
M 2203 3584 
Q 3106 3584 3614 3096 
Q 4122 2609 4122 1747 
Q 4122 884 3614 396 
Q 3106 -91 2203 -91 
Q 1297 -91 786 396 
Q 275 884 275 1747 
Q 275 2609 786 3096 
Q 1297 3584 2203 3584 
z
M 2694 5119 
L 3578 5119 
L 2425 3944 
L 1813 3944 
L 2694 5119 
z
" transform="scale(0.015625)"/>
      <path id="DejaVuSans-Bold-6e" d="M 4056 2131 
L 4056 0 
L 2931 0 
L 2931 347 
L 2931 1631 
Q 2931 2084 2911 2256 
Q 2891 2428 2841 2509 
Q 2775 2619 2662 2680 
Q 2550 2741 2406 2741 
Q 2056 2741 1856 2470 
Q 1656 2200 1656 1722 
L 1656 0 
L 538 0 
L 538 3500 
L 1656 3500 
L 1656 2988 
Q 1909 3294 2193 3439 
Q 2478 3584 2822 3584 
Q 3428 3584 3742 3212 
Q 4056 2841 4056 2131 
z
" transform="scale(0.015625)"/>
      <path id="DejaVuSans-Bold-20" transform="scale(0.015625)"/>
      <path id="DejaVuSans-Bold-64" d="M 2919 2988 
L 2919 4863 
L 4044 4863 
L 4044 0 
L 2919 0 
L 2919 506 
Q 2688 197 2409 53 
Q 2131 -91 1766 -91 
Q 1119 -91 703 423 
Q 288 938 288 1747 
Q 288 2556 703 3070 
Q 1119 3584 1766 3584 
Q 2128 3584 2408 3439 
Q 2688 3294 2919 2988 
z
M 2181 722 
Q 2541 722 2730 984 
Q 2919 1247 2919 1747 
Q 2919 2247 2730 2509 
Q 2541 2772 2181 2772 
Q 1825 2772 1636 2509 
Q 1447 2247 1447 1747 
Q 1447 1247 1636 984 
Q 1825 722 2181 722 
z
" transform="scale(0.015625)"/>
      <path id="DejaVuSans-Bold-65" d="M 4031 1759 
L 4031 1441 
L 1416 1441 
Q 1456 1047 1700 850 
Q 1944 653 2381 653 
Q 2734 653 3104 758 
Q 3475 863 3866 1075 
L 3866 213 
Q 3469 63 3072 -14 
Q 2675 -91 2278 -91 
Q 1328 -91 801 392 
Q 275 875 275 1747 
Q 275 2603 792 3093 
Q 1309 3584 2216 3584 
Q 3041 3584 3536 3087 
Q 4031 2591 4031 1759 
z
M 2881 2131 
Q 2881 2450 2695 2645 
Q 2509 2841 2209 2841 
Q 1884 2841 1681 2658 
Q 1478 2475 1428 2131 
L 2881 2131 
z
" transform="scale(0.015625)"/>
      <path id="DejaVuSans-Bold-76" d="M 97 3500 
L 1216 3500 
L 2088 1081 
L 2956 3500 
L 4078 3500 
L 2700 0 
L 1472 0 
L 97 3500 
z
" transform="scale(0.015625)"/>
      <path id="DejaVuSans-Bold-61" d="M 2106 1575 
Q 1756 1575 1579 1456 
Q 1403 1338 1403 1106 
Q 1403 894 1545 773 
Q 1688 653 1941 653 
Q 2256 653 2472 879 
Q 2688 1106 2688 1447 
L 2688 1575 
L 2106 1575 
z
M 3816 1997 
L 3816 0 
L 2688 0 
L 2688 519 
Q 2463 200 2181 54 
Q 1900 -91 1497 -91 
Q 953 -91 614 226 
Q 275 544 275 1050 
Q 275 1666 698 1953 
Q 1122 2241 2028 2241 
L 2688 2241 
L 2688 2328 
Q 2688 2594 2478 2717 
Q 2269 2841 1825 2841 
Q 1466 2841 1156 2769 
Q 847 2697 581 2553 
L 581 3406 
Q 941 3494 1303 3539 
Q 1666 3584 2028 3584 
Q 2975 3584 3395 3211 
Q 3816 2838 3816 1997 
z
" transform="scale(0.015625)"/>
      <path id="DejaVuSans-Bold-6c" d="M 538 4863 
L 1656 4863 
L 1656 0 
L 538 0 
L 538 4863 
z
" transform="scale(0.015625)"/>
      <path id="DejaVuSans-Bold-6f" d="M 2203 2784 
Q 1831 2784 1636 2517 
Q 1441 2250 1441 1747 
Q 1441 1244 1636 976 
Q 1831 709 2203 709 
Q 2569 709 2762 976 
Q 2956 1244 2956 1747 
Q 2956 2250 2762 2517 
Q 2569 2784 2203 2784 
z
M 2203 3584 
Q 3106 3584 3614 3096 
Q 4122 2609 4122 1747 
Q 4122 884 3614 396 
Q 3106 -91 2203 -91 
Q 1297 -91 786 396 
Q 275 884 275 1747 
Q 275 2609 786 3096 
Q 1297 3584 2203 3584 
z
" transform="scale(0.015625)"/>
      <path id="DejaVuSans-Bold-2014" d="M 344 2156 
L 6056 2156 
L 6056 1350 
L 344 1350 
L 344 2156 
z
" transform="scale(0.015625)"/>
      <path id="DejaVuSans-Bold-52" d="M 2297 2597 
Q 2675 2597 2839 2737 
Q 3003 2878 3003 3200 
Q 3003 3519 2839 3656 
Q 2675 3794 2297 3794 
L 1791 3794 
L 1791 2597 
L 2297 2597 
z
M 1791 1766 
L 1791 0 
L 588 0 
L 588 4666 
L 2425 4666 
Q 3347 4666 3776 4356 
Q 4206 4047 4206 3378 
Q 4206 2916 3982 2619 
Q 3759 2322 3309 2181 
Q 3556 2125 3751 1926 
Q 3947 1728 4147 1325 
L 4800 0 
L 3519 0 
L 2950 1159 
Q 2778 1509 2601 1637 
Q 2425 1766 2131 1766 
L 1791 1766 
z
" transform="scale(0.015625)"/>
      <path id="DejaVuSans-Bold-41" d="M 3419 850 
L 1538 850 
L 1241 0 
L 31 0 
L 1759 4666 
L 3194 4666 
L 4922 0 
L 3713 0 
L 3419 850 
z
M 1838 1716 
L 3116 1716 
L 2478 3572 
L 1838 1716 
z
" transform="scale(0.015625)"/>
      <path id="DejaVuSans-Bold-57" d="M 191 4666 
L 1344 4666 
L 2150 1275 
L 2950 4666 
L 4109 4666 
L 4909 1275 
L 5716 4666 
L 6859 4666 
L 5759 0 
L 4372 0 
L 3525 3547 
L 2688 0 
L 1300 0 
L 191 4666 
z
" transform="scale(0.015625)"/>
      <path id="DejaVuSans-Bold-43" d="M 4288 256 
Q 3956 84 3597 -3 
Q 3238 -91 2847 -91 
Q 1681 -91 1000 561 
Q 319 1213 319 2328 
Q 319 3447 1000 4098 
Q 1681 4750 2847 4750 
Q 3238 4750 3597 4662 
Q 3956 4575 4288 4403 
L 4288 3438 
Q 3953 3666 3628 3772 
Q 3303 3878 2944 3878 
Q 2300 3878 1931 3465 
Q 1563 3053 1563 2328 
Q 1563 1606 1931 1193 
Q 2300 781 2944 781 
Q 3303 781 3628 887 
Q 3953 994 4288 1222 
L 4288 256 
z
" transform="scale(0.015625)"/>
      <path id="DejaVuSans-Bold-4c" d="M 588 4666 
L 1791 4666 
L 1791 909 
L 3903 909 
L 3903 0 
L 588 0 
L 588 4666 
z
" transform="scale(0.015625)"/>
      <path id="DejaVuSans-Bold-45" d="M 588 4666 
L 3834 4666 
L 3834 3756 
L 1791 3756 
L 1791 2888 
L 3713 2888 
L 3713 1978 
L 1791 1978 
L 1791 909 
L 3903 909 
L 3903 0 
L 588 0 
L 588 4666 
z
" transform="scale(0.015625)"/>
      <path id="DejaVuSans-Bold-4e" d="M 588 4666 
L 1931 4666 
L 3628 1466 
L 3628 4666 
L 4769 4666 
L 4769 0 
L 3425 0 
L 1728 3200 
L 1728 0 
L 588 0 
L 588 4666 
z
" transform="scale(0.015625)"/>
     </defs>
     <use xlink:href="#DejaVuSans-Bold-44"/>
     <use xlink:href="#DejaVuSans-Bold-69" x="83.007812"/>
     <use xlink:href="#DejaVuSans-Bold-73" x="117.285156"/>
     <use xlink:href="#DejaVuSans-Bold-74" x="176.806641"/>
     <use xlink:href="#DejaVuSans-Bold-72" x="224.609375"/>
     <use xlink:href="#DejaVuSans-Bold-69" x="273.925781"/>
     <use xlink:href="#DejaVuSans-Bold-62" x="308.203125"/>
     <use xlink:href="#DejaVuSans-Bold-75" x="379.785156"/>
     <use xlink:href="#DejaVuSans-Bold-63" x="450.976562"/>
     <use xlink:href="#DejaVuSans-Bold-69" x="510.253906"/>
     <use xlink:href="#DejaVuSans-Bold-f3" x="544.53125"/>
     <use xlink:href="#DejaVuSans-Bold-6e" x="613.232422"/>
     <use xlink:href="#DejaVuSans-Bold-20" x="684.423828"/>
     <use xlink:href="#DejaVuSans-Bold-64" x="719.238281"/>
     <use xlink:href="#DejaVuSans-Bold-65" x="790.820312"/>
     <use xlink:href="#DejaVuSans-Bold-20" x="858.642578"/>
     <use xlink:href="#DejaVuSans-Bold-76" x="893.457031"/>
     <use xlink:href="#DejaVuSans-Bold-61" x="958.642578"/>
     <use xlink:href="#DejaVuSans-Bold-6c" x="1026.123047"/>
     <use xlink:href="#DejaVuSans-Bold-6f" x="1060.400391"/>
     <use xlink:href="#DejaVuSans-Bold-72" x="1129.101562"/>
     <use xlink:href="#DejaVuSans-Bold-65" x="1178.417969"/>
     <use xlink:href="#DejaVuSans-Bold-73" x="1246.240234"/>
     <use xlink:href="#DejaVuSans-Bold-20" x="1305.761719"/>
     <use xlink:href="#DejaVuSans-Bold-2014" x="1340.576172"/>
     <use xlink:href="#DejaVuSans-Bold-20" x="1440.576172"/>
     <use xlink:href="#DejaVuSans-Bold-52" x="1475.390625"/>
     <use xlink:href="#DejaVuSans-Bold-41" x="1552.392578"/>
     <use xlink:href="#DejaVuSans-Bold-57" x="1625.285156"/>
     <use xlink:href="#DejaVuSans-Bold-20" x="1735.587891"/>
     <use xlink:href="#DejaVuSans-Bold-76" x="1770.402344"/>
     <use xlink:href="#DejaVuSans-Bold-73" x="1835.587891"/>
     <use xlink:href="#DejaVuSans-Bold-20" x="1895.109375"/>
     <use xlink:href="#DejaVuSans-Bold-43" x="1929.923828"/>
     <use xlink:href="#DejaVuSans-Bold-4c" x="2003.3125"/>
     <use xlink:href="#DejaVuSans-Bold-45" x="2067.033203"/>
     <use xlink:href="#DejaVuSans-Bold-41" x="2135.34375"/>
     <use xlink:href="#DejaVuSans-Bold-4e" x="2212.736328"/>
     <use xlink:href="#DejaVuSans-Bold-45" x="2296.427734"/>
     <use xlink:href="#DejaVuSans-Bold-44" x="2364.738281"/>
    </g>
   </g>
   <g id="legend_1">
    <g id="patch_87">
     <path d="M 610.416406 41.488219 
L 632.416406 41.488219 
L 632.416406 33.788219 
L 610.416406 33.788219 
z
" style="fill: #6e7781; opacity: 0.65; stroke: #ffffff; stroke-linejoin: miter"/>
    </g>
    <g id="text_16">
     <!-- RAW -->
     <g transform="translate(641.216406 41.488219) scale(0.11 -0.11)">
      <defs>
       <path id="DejaVuSans-52" d="M 2841 2188 
Q 3044 2119 3236 1894 
Q 3428 1669 3622 1275 
L 4263 0 
L 3584 0 
L 2988 1197 
Q 2756 1666 2539 1819 
Q 2322 1972 1947 1972 
L 1259 1972 
L 1259 0 
L 628 0 
L 628 4666 
L 2053 4666 
Q 2853 4666 3247 4331 
Q 3641 3997 3641 3322 
Q 3641 2881 3436 2590 
Q 3231 2300 2841 2188 
z
M 1259 4147 
L 1259 2491 
L 2053 2491 
Q 2509 2491 2742 2702 
Q 2975 2913 2975 3322 
Q 2975 3731 2742 3939 
Q 2509 4147 2053 4147 
L 1259 4147 
z
" transform="scale(0.015625)"/>
       <path id="DejaVuSans-41" d="M 2188 4044 
L 1331 1722 
L 3047 1722 
L 2188 4044 
z
M 1831 4666 
L 2547 4666 
L 4325 0 
L 3669 0 
L 3244 1197 
L 1141 1197 
L 716 0 
L 50 0 
L 1831 4666 
z
" transform="scale(0.015625)"/>
       <path id="DejaVuSans-57" d="M 213 4666 
L 850 4666 
L 1831 722 
L 2809 4666 
L 3519 4666 
L 4500 722 
L 5478 4666 
L 6119 4666 
L 4947 0 
L 4153 0 
L 3169 4050 
L 2175 0 
L 1381 0 
L 213 4666 
z
" transform="scale(0.015625)"/>
      </defs>
      <use xlink:href="#DejaVuSans-52"/>
      <use xlink:href="#DejaVuSans-41" x="65.482422"/>
      <use xlink:href="#DejaVuSans-57" x="128.390625"/>
     </g>
    </g>
    <g id="patch_88">
     <path d="M 610.416406 57.634156 
L 632.416406 57.634156 
L 632.416406 49.934156 
L 610.416406 49.934156 
z
" style="fill: #1f6feb; opacity: 0.65; stroke: #ffffff; stroke-linejoin: miter"/>
    </g>
    <g id="text_17">
     <!-- CLEANED -->
     <g transform="translate(641.216406 57.634156) scale(0.11 -0.11)">
      <defs>
       <path id="DejaVuSans-43" d="M 4122 4306 
L 4122 3641 
Q 3803 3938 3442 4084 
Q 3081 4231 2675 4231 
Q 1875 4231 1450 3742 
Q 1025 3253 1025 2328 
Q 1025 1406 1450 917 
Q 1875 428 2675 428 
Q 3081 428 3442 575 
Q 3803 722 4122 1019 
L 4122 359 
Q 3791 134 3420 21 
Q 3050 -91 2638 -91 
Q 1578 -91 968 557 
Q 359 1206 359 2328 
Q 359 3453 968 4101 
Q 1578 4750 2638 4750 
Q 3056 4750 3426 4639 
Q 3797 4528 4122 4306 
z
" transform="scale(0.015625)"/>
       <path id="DejaVuSans-4c" d="M 628 4666 
L 1259 4666 
L 1259 531 
L 3531 531 
L 3531 0 
L 628 0 
L 628 4666 
z
" transform="scale(0.015625)"/>
       <path id="DejaVuSans-45" d="M 628 4666 
L 3578 4666 
L 3578 4134 
L 1259 4134 
L 1259 2753 
L 3481 2753 
L 3481 2222 
L 1259 2222 
L 1259 531 
L 3634 531 
L 3634 0 
L 628 0 
L 628 4666 
z
" transform="scale(0.015625)"/>
       <path id="DejaVuSans-4e" d="M 628 4666 
L 1478 4666 
L 3547 763 
L 3547 4666 
L 4159 4666 
L 4159 0 
L 3309 0 
L 1241 3903 
L 1241 0 
L 628 0 
L 628 4666 
z
" transform="scale(0.015625)"/>
       <path id="DejaVuSans-44" d="M 1259 4147 
L 1259 519 
L 2022 519 
Q 2988 519 3436 956 
Q 3884 1394 3884 2338 
Q 3884 3275 3436 3711 
Q 2988 4147 2022 4147 
L 1259 4147 
z
M 628 4666 
L 1925 4666 
Q 3281 4666 3915 4102 
Q 4550 3538 4550 2338 
Q 4550 1131 3912 565 
Q 3275 0 1925 0 
L 628 0 
L 628 4666 
z
" transform="scale(0.015625)"/>
      </defs>
      <use xlink:href="#DejaVuSans-43"/>
      <use xlink:href="#DejaVuSans-4c" x="69.824219"/>
      <use xlink:href="#DejaVuSans-45" x="125.537109"/>
      <use xlink:href="#DejaVuSans-41" x="188.720703"/>
      <use xlink:href="#DejaVuSans-4e" x="257.128906"/>
      <use xlink:href="#DejaVuSans-45" x="331.933594"/>
      <use xlink:href="#DejaVuSans-44" x="395.117188"/>
     </g>
    </g>
   </g>
  </g>
 </g>
 <defs>
  <clipPath id="p52bab3639f">
   <rect x="60.336875" y="23.229937" width="642.715" height="360.04"/>
  </clipPath>
 </defs>
</svg>
