<?xml version="1.0" encoding="utf-8" standalone="no"?>
<!DOCTYPE svg PUBLIC "-//W3C//DTD SVG 1.1//EN"
  "http://www.w3.org/Graphics/SVG/1.1/DTD/svg11.dtd">
<svg xmlns:xlink="http://www.w3.org/1999/xlink" width="710.332187pt" height="422.666467pt" viewBox="0 0 710.332187 422.666467" xmlns="http://www.w3.org/2000/svg" version="1.1">
 <metadata>
  <rdf:RDF xmlns:dc="http://purl.org/dc/elements/1.1/" xmlns:cc="http://creativecommons.org/ns#" xmlns:rdf="http://www.w3.org/1999/02/22-rdf-syntax-ns#">
   <cc:Work>
    <dc:type rdf:resource="http://purl.org/dc/dcmitype/StillImage"/>
    <dc:date>2025-10-27T21:30:22.586078</dc:date>
    <dc:format>image/svg+xml</dc:format>
    <dc:creator>
     <cc:Agent>
      <dc:title>Matplotlib v3.9.0, https://matplotlib.org/</dc:title>
     </cc:Agent>
    </dc:creator>
   </cc:Work>
  </rdf:RDF>
 </metadata>
 <defs>
  <style type="text/css">*{stroke-linejoin: round; stroke-linecap: butt}</style>
 </defs>
 <g id="figure_1">
  <g id="patch_1">
   <path d="M 0 422.666467 
L 710.332187 422.666467 
L 710.332187 0 
L 0 0 
z
" style="fill: #ffffff"/>
  </g>
  <g id="axes_1">
   <g id="patch_2">
    <path d="M 49.842188 366.99126 
L 703.132187 366.99126 
L 703.132187 23.229937 
L 49.842188 23.229937 
z
" style="fill: #ffffff"/>
   </g>
   <g id="matplotlib.axis_1">
    <g id="xtick_1">
     <g id="line2d_1">
      <path d="M 129.554243 366.99126 
L 129.554243 23.229937 
" clip-path="url(#pcd2b069a36)" style="fill: none; stroke: #e5e7eb; stroke-width: 0.8; stroke-linecap: square"/>
     </g>
     <g id="line2d_2">
      <defs>
       <path id="m75331e66d3" d="M 0 0 
L 0 3.5 
" style="stroke: #374151; stroke-width: 0.8"/>
      </defs>
      <g>
       <use xlink:href="#m75331e66d3" x="129.554243" y="366.99126" style="fill: #374151; stroke: #374151; stroke-width: 0.8"/>
      </g>
     </g>
     <g id="text_1">
      <!-- 27 22:00 -->
      <g style="fill: #374151" transform="translate(107.478733 398.670836) rotate(-20) scale(0.11 -0.11)">
       <defs>
        <path id="DejaVuSans-32" d="M 1228 531 
L 3431 531 
L 3431 0 
L 469 0 
L 469 531 
Q 828 903 1448 1529 
Q 2069 2156 2228 2338 
Q 2531 2678 2651 2914 
Q 2772 3150 2772 3378 
Q 2772 3750 2511 3984 
Q 2250 4219 1831 4219 
Q 1534 4219 1204 4116 
Q 875 4013 500 3803 
L 500 4441 
Q 881 4594 1212 4672 
Q 1544 4750 1819 4750 
Q 2544 4750 2975 4387 
Q 3406 4025 3406 3419 
Q 3406 3131 3298 2873 
Q 3191 2616 2906 2266 
Q 2828 2175 2409 1742 
Q 1991 1309 1228 531 
z
" transform="scale(0.015625)"/>
        <path id="DejaVuSans-37" d="M 525 4666 
L 3525 4666 
L 3525 4397 
L 1831 0 
L 1172 0 
L 2766 4134 
L 525 4134 
L 525 4666 
z
" transform="scale(0.015625)"/>
        <path id="DejaVuSans-20" transform="scale(0.015625)"/>
        <path id="DejaVuSans-3a" d="M 750 794 
L 1409 794 
L 1409 0 
L 750 0 
L 750 794 
z
M 750 3309 
L 1409 3309 
L 1409 2516 
L 750 2516 
L 750 3309 
z
" transform="scale(0.015625)"/>
        <path id="DejaVuSans-30" d="M 2034 4250 
Q 1547 4250 1301 3770 
Q 1056 3291 1056 2328 
Q 1056 1369 1301 889 
Q 1547 409 2034 409 
Q 2525 409 2770 889 
Q 3016 1369 3016 2328 
Q 3016 3291 2770 3770 
Q 2525 4250 2034 4250 
z
M 2034 4750 
Q 2819 4750 3233 4129 
Q 3647 3509 3647 2328 
Q 3647 1150 3233 529 
Q 2819 -91 2034 -91 
Q 1250 -91 836 529 
Q 422 1150 422 2328 
Q 422 3509 836 4129 
Q 1250 4750 2034 4750 
z
" transform="scale(0.015625)"/>
       </defs>
       <use xlink:href="#DejaVuSans-32"/>
       <use xlink:href="#DejaVuSans-37" x="63.623047"/>
       <use xlink:href="#DejaVuSans-20" x="127.246094"/>
       <use xlink:href="#DejaVuSans-32" x="159.033203"/>
       <use xlink:href="#DejaVuSans-32" x="222.65625"/>
       <use xlink:href="#DejaVuSans-3a" x="286.279297"/>
       <use xlink:href="#DejaVuSans-30" x="319.970703"/>
       <use xlink:href="#DejaVuSans-30" x="383.59375"/>
      </g>
     </g>
    </g>
    <g id="xtick_2">
     <g id="line2d_3">
      <path d="M 255.647662 366.99126 
L 255.647662 23.229937 
" clip-path="url(#pcd2b069a36)" style="fill: none; stroke: #e5e7eb; stroke-width: 0.8; stroke-linecap: square"/>
     </g>
     <g id="line2d_4">
      <g>
       <use xlink:href="#m75331e66d3" x="255.647662" y="366.99126" style="fill: #374151; stroke: #374151; stroke-width: 0.8"/>
      </g>
     </g>
     <g id="text_2">
      <!-- 27 22:30 -->
      <g style="fill: #374151" transform="translate(233.572151 398.670836) rotate(-20) scale(0.11 -0.11)">
       <defs>
        <path id="DejaVuSans-33" d="M 2597 2516 
Q 3050 2419 3304 2112 
Q 3559 1806 3559 1356 
Q 3559 666 3084 287 
Q 2609 -91 1734 -91 
Q 1441 -91 1130 -33 
Q 819 25 488 141 
L 488 750 
Q 750 597 1062 519 
Q 1375 441 1716 441 
Q 2309 441 2620 675 
Q 2931 909 2931 1356 
Q 2931 1769 2642 2001 
Q 2353 2234 1838 2234 
L 1294 2234 
L 1294 2753 
L 1863 2753 
Q 2328 2753 2575 2939 
Q 2822 3125 2822 3475 
Q 2822 3834 2567 4026 
Q 2313 4219 1838 4219 
Q 1578 4219 1281 4162 
Q 984 4106 628 3988 
L 628 4550 
Q 988 4650 1302 4700 
Q 1616 4750 1894 4750 
Q 2613 4750 3031 4423 
Q 3450 4097 3450 3541 
Q 3450 3153 3228 2886 
Q 3006 2619 2597 2516 
z
" transform="scale(0.015625)"/>
       </defs>
       <use xlink:href="#DejaVuSans-32"/>
       <use xlink:href="#DejaVuSans-37" x="63.623047"/>
       <use xlink:href="#DejaVuSans-20" x="127.246094"/>
       <use xlink:href="#DejaVuSans-32" x="159.033203"/>
       <use xlink:href="#DejaVuSans-32" x="222.65625"/>
       <use xlink:href="#DejaVuSans-3a" x="286.279297"/>
       <use xlink:href="#DejaVuSans-33" x="319.970703"/>
       <use xlink:href="#DejaVuSans-30" x="383.59375"/>
      </g>
     </g>
    </g>
    <g id="xtick_3">
     <g id="line2d_5">
      <path d="M 381.74108 366.99126 
L 381.74108 23.229937 
" clip-path="url(#pcd2b069a36)" style="fill: none; stroke: #e5e7eb; stroke-width: 0.8; stroke-linecap: square"/>
     </g>
     <g id="line2d_6">
      <g>
       <use xlink:href="#m75331e66d3" x="381.74108" y="366.99126" style="fill: #374151; stroke: #374151; stroke-width: 0.8"/>
      </g>
     </g>
     <g id="text_3">
      <!-- 27 23:00 -->
      <g style="fill: #374151" transform="translate(359.665569 398.670836) rotate(-20) scale(0.11 -0.11)">
       <use xlink:href="#DejaVuSans-32"/>
       <use xlink:href="#DejaVuSans-37" x="63.623047"/>
       <use xlink:href="#DejaVuSans-20" x="127.246094"/>
       <use xlink:href="#DejaVuSans-32" x="159.033203"/>
       <use xlink:href="#DejaVuSans-33" x="222.65625"/>
       <use xlink:href="#DejaVuSans-3a" x="286.279297"/>
       <use xlink:href="#DejaVuSans-30" x="319.970703"/>
       <use xlink:href="#DejaVuSans-30" x="383.59375"/>
      </g>
     </g>
    </g>
    <g id="xtick_4">
     <g id="line2d_7">
      <path d="M 507.834498 366.99126 
L 507.834498 23.229937 
" clip-path="url(#pcd2b069a36)" style="fill: none; stroke: #e5e7eb; stroke-width: 0.8; stroke-linecap: square"/>
     </g>
     <g id="line2d_8">
      <g>
       <use xlink:href="#m75331e66d3" x="507.834498" y="366.99126" style="fill: #374151; stroke: #374151; stroke-width: 0.8"/>
      </g>
     </g>
     <g id="text_4">
      <!-- 27 23:30 -->
      <g style="fill: #374151" transform="translate(485.758987 398.670836) rotate(-20) scale(0.11 -0.11)">
       <use xlink:href="#DejaVuSans-32"/>
       <use xlink:href="#DejaVuSans-37" x="63.623047"/>
       <use xlink:href="#DejaVuSans-20" x="127.246094"/>
       <use xlink:href="#DejaVuSans-32" x="159.033203"/>
       <use xlink:href="#DejaVuSans-33" x="222.65625"/>
       <use xlink:href="#DejaVuSans-3a" x="286.279297"/>
       <use xlink:href="#DejaVuSans-33" x="319.970703"/>
       <use xlink:href="#DejaVuSans-30" x="383.59375"/>
      </g>
     </g>
    </g>
    <g id="xtick_5">
     <g id="line2d_9">
      <path d="M 633.927916 366.99126 
L 633.927916 23.229937 
" clip-path="url(#pcd2b069a36)" style="fill: none; stroke: #e5e7eb; stroke-width: 0.8; stroke-linecap: square"/>
     </g>
     <g id="line2d_10">
      <g>
       <use xlink:href="#m75331e66d3" x="633.927916" y="366.99126" style="fill: #374151; stroke: #374151; stroke-width: 0.8"/>
      </g>
     </g>
     <g id="text_5">
      <!-- 28 00:00 -->
      <g style="fill: #374151" transform="translate(611.852406 398.670836) rotate(-20) scale(0.11 -0.11)">
       <defs>
        <path id="DejaVuSans-38" d="M 2034 2216 
Q 1584 2216 1326 1975 
Q 1069 1734 1069 1313 
Q 1069 891 1326 650 
Q 1584 409 2034 409 
Q 2484 409 2743 651 
Q 3003 894 3003 1313 
Q 3003 1734 2745 1975 
Q 2488 2216 2034 2216 
z
M 1403 2484 
Q 997 2584 770 2862 
Q 544 3141 544 3541 
Q 544 4100 942 4425 
Q 1341 4750 2034 4750 
Q 2731 4750 3128 4425 
Q 3525 4100 3525 3541 
Q 3525 3141 3298 2862 
Q 3072 2584 2669 2484 
Q 3125 2378 3379 2068 
Q 3634 1759 3634 1313 
Q 3634 634 3220 271 
Q 2806 -91 2034 -91 
Q 1263 -91 848 271 
Q 434 634 434 1313 
Q 434 1759 690 2068 
Q 947 2378 1403 2484 
z
M 1172 3481 
Q 1172 3119 1398 2916 
Q 1625 2713 2034 2713 
Q 2441 2713 2670 2916 
Q 2900 3119 2900 3481 
Q 2900 3844 2670 4047 
Q 2441 4250 2034 4250 
Q 1625 4250 1398 4047 
Q 1172 3844 1172 3481 
z
" transform="scale(0.015625)"/>
       </defs>
       <use xlink:href="#DejaVuSans-32"/>
       <use xlink:href="#DejaVuSans-38" x="63.623047"/>
       <use xlink:href="#DejaVuSans-20" x="127.246094"/>
       <use xlink:href="#DejaVuSans-30" x="159.033203"/>
       <use xlink:href="#DejaVuSans-30" x="222.65625"/>
       <use xlink:href="#DejaVuSans-3a" x="286.279297"/>
       <use xlink:href="#DejaVuSans-30" x="319.970703"/>
       <use xlink:href="#DejaVuSans-30" x="383.59375"/>
      </g>
     </g>
    </g>
    <g id="text_6">
     <!-- Tiempo -->
     <g style="fill: #111827" transform="translate(356.173281 413.178811) scale(0.11 -0.11)">
      <defs>
       <path id="DejaVuSans-54" d="M -19 4666 
L 3928 4666 
L 3928 4134 
L 2272 4134 
L 2272 0 
L 1638 0 
L 1638 4134 
L -19 4134 
L -19 4666 
z
" transform="scale(0.015625)"/>
       <path id="DejaVuSans-69" d="M 603 3500 
L 1178 3500 
L 1178 0 
L 603 0 
L 603 3500 
z
M 603 4863 
L 1178 4863 
L 1178 4134 
L 603 4134 
L 603 4863 
z
" transform="scale(0.015625)"/>
       <path id="DejaVuSans-65" d="M 3597 1894 
L 3597 1613 
L 953 1613 
Q 991 1019 1311 708 
Q 1631 397 2203 397 
Q 2534 397 2845 478 
Q 3156 559 3463 722 
L 3463 178 
Q 3153 47 2828 -22 
Q 2503 -91 2169 -91 
Q 1331 -91 842 396 
Q 353 884 353 1716 
Q 353 2575 817 3079 
Q 1281 3584 2069 3584 
Q 2775 3584 3186 3129 
Q 3597 2675 3597 1894 
z
M 3022 2063 
Q 3016 2534 2758 2815 
Q 2500 3097 2075 3097 
Q 1594 3097 1305 2825 
Q 1016 2553 972 2059 
L 3022 2063 
z
" transform="scale(0.015625)"/>
       <path id="DejaVuSans-6d" d="M 3328 2828 
Q 3544 3216 3844 3400 
Q 4144 3584 4550 3584 
Q 5097 3584 5394 3201 
Q 5691 2819 5691 2113 
L 5691 0 
L 5113 0 
L 5113 2094 
Q 5113 2597 4934 2840 
Q 4756 3084 4391 3084 
Q 3944 3084 3684 2787 
Q 3425 2491 3425 1978 
L 3425 0 
L 2847 0 
L 2847 2094 
Q 2847 2600 2669 2842 
Q 2491 3084 2119 3084 
Q 1678 3084 1418 2786 
Q 1159 2488 1159 1978 
L 1159 0 
L 581 0 
L 581 3500 
L 1159 3500 
L 1159 2956 
Q 1356 3278 1631 3431 
Q 1906 3584 2284 3584 
Q 2666 3584 2933 3390 
Q 3200 3197 3328 2828 
z
" transform="scale(0.015625)"/>
       <path id="DejaVuSans-70" d="M 1159 525 
L 1159 -1331 
L 581 -1331 
L 581 3500 
L 1159 3500 
L 1159 2969 
Q 1341 3281 1617 3432 
Q 1894 3584 2278 3584 
Q 2916 3584 3314 3078 
Q 3713 2572 3713 1747 
Q 3713 922 3314 415 
Q 2916 -91 2278 -91 
Q 1894 -91 1617 61 
Q 1341 213 1159 525 
z
M 3116 1747 
Q 3116 2381 2855 2742 
Q 2594 3103 2138 3103 
Q 1681 3103 1420 2742 
Q 1159 2381 1159 1747 
Q 1159 1113 1420 752 
Q 1681 391 2138 391 
Q 2594 391 2855 752 
Q 3116 1113 3116 1747 
z
" transform="scale(0.015625)"/>
       <path id="DejaVuSans-6f" d="M 1959 3097 
Q 1497 3097 1228 2736 
Q 959 2375 959 1747 
Q 959 1119 1226 758 
Q 1494 397 1959 397 
Q 2419 397 2687 759 
Q 2956 1122 2956 1747 
Q 2956 2369 2687 2733 
Q 2419 3097 1959 3097 
z
M 1959 3584 
Q 2709 3584 3137 3096 
Q 3566 2609 3566 1747 
Q 3566 888 3137 398 
Q 2709 -91 1959 -91 
Q 1206 -91 779 398 
Q 353 888 353 1747 
Q 353 2609 779 3096 
Q 1206 3584 1959 3584 
z
" transform="scale(0.015625)"/>
      </defs>
      <use xlink:href="#DejaVuSans-54"/>
      <use xlink:href="#DejaVuSans-69" x="57.958984"/>
      <use xlink:href="#DejaVuSans-65" x="85.742188"/>
      <use xlink:href="#DejaVuSans-6d" x="147.265625"/>
      <use xlink:href="#DejaVuSans-70" x="244.677734"/>
      <use xlink:href="#DejaVuSans-6f" x="308.154297"/>
     </g>
    </g>
   </g>
   <g id="matplotlib.axis_2">
    <g id="ytick_1">
     <g id="line2d_11">
      <path d="M 49.842188 351.397056 
L 703.132187 351.397056 
" clip-path="url(#pcd2b069a36)" style="fill: none; stroke: #e5e7eb; stroke-width: 0.8; stroke-linecap: square"/>
     </g>
     <g id="line2d_12">
      <defs>
       <path id="mc97481001b" d="M 0 0 
L -3.5 0 
" style="stroke: #374151; stroke-width: 0.8"/>
      </defs>
      <g>
       <use xlink:href="#mc97481001b" x="49.842188" y="351.397056" style="fill: #374151; stroke: #374151; stroke-width: 0.8"/>
      </g>
     </g>
     <g id="text_7">
      <!-- 0 -->
      <g style="fill: #374151" transform="translate(35.843438 355.576197) scale(0.11 -0.11)">
       <use xlink:href="#DejaVuSans-30"/>
      </g>
     </g>
    </g>
    <g id="ytick_2">
     <g id="line2d_13">
      <path d="M 49.842188 288.776017 
L 703.132187 288.776017 
" clip-path="url(#pcd2b069a36)" style="fill: none; stroke: #e5e7eb; stroke-width: 0.8; stroke-linecap: square"/>
     </g>
     <g id="line2d_14">
      <g>
       <use xlink:href="#mc97481001b" x="49.842188" y="288.776017" style="fill: #374151; stroke: #374151; stroke-width: 0.8"/>
      </g>
     </g>
     <g id="text_8">
      <!-- 20 -->
      <g style="fill: #374151" transform="translate(28.844687 292.955158) scale(0.11 -0.11)">
       <use xlink:href="#DejaVuSans-32"/>
       <use xlink:href="#DejaVuSans-30" x="63.623047"/>
      </g>
     </g>
    </g>
    <g id="ytick_3">
     <g id="line2d_15">
      <path d="M 49.842188 226.154979 
L 703.132187 226.154979 
" clip-path="url(#pcd2b069a36)" style="fill: none; stroke: #e5e7eb; stroke-width: 0.8; stroke-linecap: square"/>
     </g>
     <g id="line2d_16">
      <g>
       <use xlink:href="#mc97481001b" x="49.842188" y="226.154979" style="fill: #374151; stroke: #374151; stroke-width: 0.8"/>
      </g>
     </g>
     <g id="text_9">
      <!-- 40 -->
      <g style="fill: #374151" transform="translate(28.844687 230.334119) scale(0.11 -0.11)">
       <defs>
        <path id="DejaVuSans-34" d="M 2419 4116 
L 825 1625 
L 2419 1625 
L 2419 4116 
z
M 2253 4666 
L 3047 4666 
L 3047 1625 
L 3713 1625 
L 3713 1100 
L 3047 1100 
L 3047 0 
L 2419 0 
L 2419 1100 
L 313 1100 
L 313 1709 
L 2253 4666 
z
" transform="scale(0.015625)"/>
       </defs>
       <use xlink:href="#DejaVuSans-34"/>
       <use xlink:href="#DejaVuSans-30" x="63.623047"/>
      </g>
     </g>
    </g>
    <g id="ytick_4">
     <g id="line2d_17">
      <path d="M 49.842188 163.53394 
L 703.132187 163.53394 
" clip-path="url(#pcd2b069a36)" style="fill: none; stroke: #e5e7eb; stroke-width: 0.8; stroke-linecap: square"/>
     </g>
     <g id="line2d_18">
      <g>
       <use xlink:href="#mc97481001b" x="49.842188" y="163.53394" style="fill: #374151; stroke: #374151; stroke-width: 0.8"/>
      </g>
     </g>
     <g id="text_10">
      <!-- 60 -->
      <g style="fill: #374151" transform="translate(28.844687 167.713081) scale(0.11 -0.11)">
       <defs>
        <path id="DejaVuSans-36" d="M 2113 2584 
Q 1688 2584 1439 2293 
Q 1191 2003 1191 1497 
Q 1191 994 1439 701 
Q 1688 409 2113 409 
Q 2538 409 2786 701 
Q 3034 994 3034 1497 
Q 3034 2003 2786 2293 
Q 2538 2584 2113 2584 
z
M 3366 4563 
L 3366 3988 
Q 3128 4100 2886 4159 
Q 2644 4219 2406 4219 
Q 1781 4219 1451 3797 
Q 1122 3375 1075 2522 
Q 1259 2794 1537 2939 
Q 1816 3084 2150 3084 
Q 2853 3084 3261 2657 
Q 3669 2231 3669 1497 
Q 3669 778 3244 343 
Q 2819 -91 2113 -91 
Q 1303 -91 875 529 
Q 447 1150 447 2328 
Q 447 3434 972 4092 
Q 1497 4750 2381 4750 
Q 2619 4750 2861 4703 
Q 3103 4656 3366 4563 
z
" transform="scale(0.015625)"/>
       </defs>
       <use xlink:href="#DejaVuSans-36"/>
       <use xlink:href="#DejaVuSans-30" x="63.623047"/>
      </g>
     </g>
    </g>
    <g id="ytick_5">
     <g id="line2d_19">
      <path d="M 49.842188 100.912901 
L 703.132187 100.912901 
" clip-path="url(#pcd2b069a36)" style="fill: none; stroke: #e5e7eb; stroke-width: 0.8; stroke-linecap: square"/>
     </g>
     <g id="line2d_20">
      <g>
       <use xlink:href="#mc97481001b" x="49.842188" y="100.912901" style="fill: #374151; stroke: #374151; stroke-width: 0.8"/>
      </g>
     </g>
     <g id="text_11">
      <!-- 80 -->
      <g style="fill: #374151" transform="translate(28.844687 105.092042) scale(0.11 -0.11)">
       <use xlink:href="#DejaVuSans-38"/>
       <use xlink:href="#DejaVuSans-30" x="63.623047"/>
      </g>
     </g>
    </g>
    <g id="ytick_6">
     <g id="line2d_21">
      <path d="M 49.842188 38.291863 
L 703.132187 38.291863 
" clip-path="url(#pcd2b069a36)" style="fill: none; stroke: #e5e7eb; stroke-width: 0.8; stroke-linecap: square"/>
     </g>
     <g id="line2d_22">
      <g>
       <use xlink:href="#mc97481001b" x="49.842188" y="38.291863" style="fill: #374151; stroke: #374151; stroke-width: 0.8"/>
      </g>
     </g>
     <g id="text_12">
      <!-- 100 -->
      <g style="fill: #374151" transform="translate(21.845938 42.471003) scale(0.11 -0.11)">
       <defs>
        <path id="DejaVuSans-31" d="M 794 531 
L 1825 531 
L 1825 4091 
L 703 3866 
L 703 4441 
L 1819 4666 
L 2450 4666 
L 2450 531 
L 3481 531 
L 3481 0 
L 794 0 
L 794 531 
z
" transform="scale(0.015625)"/>
       </defs>
       <use xlink:href="#DejaVuSans-31"/>
       <use xlink:href="#DejaVuSans-30" x="63.623047"/>
       <use xlink:href="#DejaVuSans-30" x="127.246094"/>
      </g>
     </g>
    </g>
    <g id="text_13">
     <!-- Valor -->
     <g style="fill: #111827" transform="translate(15.558281 208.971458) rotate(-90) scale(0.11 -0.11)">
      <defs>
       <path id="DejaVuSans-56" d="M 1831 0 
L 50 4666 
L 709 4666 
L 2188 738 
L 3669 4666 
L 4325 4666 
L 2547 0 
L 1831 0 
z
" transform="scale(0.015625)"/>
       <path id="DejaVuSans-61" d="M 2194 1759 
Q 1497 1759 1228 1600 
Q 959 1441 959 1056 
Q 959 750 1161 570 
Q 1363 391 1709 391 
Q 2188 391 2477 730 
Q 2766 1069 2766 1631 
L 2766 1759 
L 2194 1759 
z
M 3341 1997 
L 3341 0 
L 2766 0 
L 2766 531 
Q 2569 213 2275 61 
Q 1981 -91 1556 -91 
Q 1019 -91 701 211 
Q 384 513 384 1019 
Q 384 1609 779 1909 
Q 1175 2209 1959 2209 
L 2766 2209 
L 2766 2266 
Q 2766 2663 2505 2880 
Q 2244 3097 1772 3097 
Q 1472 3097 1187 3025 
Q 903 2953 641 2809 
L 641 3341 
Q 956 3463 1253 3523 
Q 1550 3584 1831 3584 
Q 2591 3584 2966 3190 
Q 3341 2797 3341 1997 
z
" transform="scale(0.015625)"/>
       <path id="DejaVuSans-6c" d="M 603 4863 
L 1178 4863 
L 1178 0 
L 603 0 
L 603 4863 
z
" transform="scale(0.015625)"/>
       <path id="DejaVuSans-72" d="M 2631 2963 
Q 2534 3019 2420 3045 
Q 2306 3072 2169 3072 
Q 1681 3072 1420 2755 
Q 1159 2438 1159 1844 
L 1159 0 
L 581 0 
L 581 3500 
L 1159 3500 
L 1159 2956 
Q 1341 3275 1631 3429 
Q 1922 3584 2338 3584 
Q 2397 3584 2469 3576 
Q 2541 3569 2628 3553 
L 2631 2963 
z
" transform="scale(0.015625)"/>
      </defs>
      <use xlink:href="#DejaVuSans-56"/>
      <use xlink:href="#DejaVuSans-61" x="60.658203"/>
      <use xlink:href="#DejaVuSans-6c" x="121.9375"/>
      <use xlink:href="#DejaVuSans-6f" x="149.720703"/>
      <use xlink:href="#DejaVuSans-72" x="210.902344"/>
     </g>
    </g>
   </g>
   <g id="line2d_23">
    <path d="M 79.537187 85.195021 
L 82.129108 132.974873 
L 83.460094 178.343816 
L 83.950457 124.865449 
L 85.91191 268.42418 
L 86.26217 210.249235 
L 87.523104 243.501006 
L 87.803312 272.588479 
L 87.873363 42.049125 
L 89.344453 280.134314 
L 92.146529 253.645615 
L 92.216581 198.852206 
L 92.496789 202.922573 
M 96.699903 215.478092 
L 97.540526 111.902894 
M 101.813691 65.218909 
L 133.617254 282.32605 
L 137.960471 139.518772 
L 140.762547 74.079786 
L 141.95343 180.472931 
M 145.035713 349.988083 
L 145.105765 198.695653 
L 145.946388 334.802481 
L 148.188049 228.158852 
L 149.028671 219.798943 
L 150.009398 285.864139 
L 154.562771 94.901282 
L 155.123187 180.253757 
L 155.543498 41.892573 
L 156.173965 223.274411 
L 158.20547 323.436762 
L 159.256249 318.145284 
L 161.638013 296.634958 
L 162.128376 174.774417 
L 164.370037 124.270549 
L 167.872632 97.907092 
L 168.783307 274.968078 
L 168.923411 136.262478 
L 171.86559 316.548448 
M 174.387459 58.424527 
L 175.928601 104.012643 
L 177.119483 142.775066 
L 178.590573 56.107548 
L 178.590573 312.540701 
L 180.271818 323.061036 
M 193.721783 340.908032 
L 194.422302 280.854456 
L 195.47308 72.138534 
L 195.963444 101.069454 
L 196.804066 230.601072 
L 197.084274 189.834776 
L 199.88635 66.314778 
L 202.128011 71.230529 
L 203.529049 195.595912 
L 204.930087 64.686631 
L 205.560554 124.36448 
L 210.043875 59.614326 
M 212.285536 84.5375 
L 213.686574 212.127866 
L 216.908961 264.666917 
L 217.189169 38.855452 
L 217.259221 88.983594 
M 221.672491 93.836724 
L 222.02275 120.951634 
L 229.097992 339.217264 
L 230.218822 251.266015 
L 231.199549 288.149807 
L 232.880794 153.702437 
L 233.371158 170.17177 
M 235.822974 125.272485 
L 238.905258 107.237626 
M 240.726607 212.94194 
L 242.618008 312.540701 
L 243.598735 149.287654 
L 244.369306 44.334793 
L 244.999773 232.354462 
L 245.840396 88.545246 
L 246.821122 137.107862 
L 248.502368 262.944839 
L 248.782576 235.235029 
L 248.852627 274.999389 
L 248.922679 238.616565 
L 249.483095 146.219223 
L 250.463821 201.075253 
L 252.004963 339.248574 
L 254.666935 85.633368 
M 257.398959 192.46486 
L 257.819271 93.179203 
L 258.870049 294.725016 
L 261.672125 134.00812 
L 261.952333 247.9471 
L 262.162488 271.398679 
L 262.722903 160.715993 
L 263.423422 207.838325 
L 263.563526 101.163386 
L 266.505706 218.828317 
L 270.70882 159.90192 
L 270.989028 59.551705 
M 274.001259 141.021677 
L 274.631726 129.937753 
L 275.822609 150.696627 
L 279.535359 65.218909 
L 279.605411 289.903196 
L 279.745515 81.437758 
L 282.057228 233.669503 
L 282.127279 131.5659 
L 282.337435 45.430661 
L 284.859304 52.256354 
L 286.330393 221.051364 
L 291.654338 201.169184 
L 291.72439 149.851243 
L 292.775168 89.891599 
L 297.188438 121.984881 
L 298.37932 325.659809 
L 299.149891 155.925484 
L 302.022019 215.35285 
L 303.282953 274.310557 
L 304.683991 263.664981 
L 305.38451 237.11366 
L 306.435288 44.616588 
L 306.645444 121.828328 
L 306.8556 120.012318 
L 310.848558 220.20598 
L 314.000894 169.169834 
L 314.841516 110.46261 
L 316.312606 73.484887 
L 318.063904 114.971325 
L 319.955305 280.134314 
L 319.955305 136.669515 
L 321.776654 166.070092 
L 322.687329 38.980694 
L 323.387848 191.963892 
L 324.858938 264.322502 
L 325.769613 351.365745 
L 328.221429 222.648201 
L 329.272208 310.943865 
L 329.482363 186.327998 
L 330.533142 232.010046 
L 336.417501 264.729538 
L 338.378954 167.635618 
L 340.690667 326.661746 
L 341.601342 105.703411 
L 343.212535 329.103966 
L 345.244041 150.477454 
L 345.804456 245.567501 
L 347.205494 51.035244 
L 352.669542 346.168199 
L 353.229957 148.943238 
L 355.121358 309.503581 
L 355.751825 90.705672 
L 357.222915 226.749879 
L 357.923434 97.124329 
L 358.13359 309.096544 
M 360.235147 162.438072 
L 362.1966 61.774752 
L 362.686963 225.810563 
L 363.037223 157.584941 
L 363.527586 39.074626 
L 364.088001 69.351898 
L 364.368209 279.069756 
L 365.769247 75.206965 
M 367.380441 159.93323 
L 367.450493 286.772144 
L 371.373399 81.688243 
L 372.984593 276.721467 
L 373.404904 153.608505 
L 374.035371 85.821231 
L 375.576513 162.031035 
L 382.441599 195.564601 
L 383.352274 54.041054 
L 383.562429 209.403851 
L 385.734038 235.548134 
L 385.944194 279.758588 
L 386.854869 131.910316 
L 386.994972 133.444531 
L 392.178813 166.226645 
L 396.522031 244.409011 
M 400.444937 190.273124 
L 402.616546 165.256019 
L 402.966805 333.737923 
L 403.737376 213.724703 
L 407.029815 177.968089 
L 407.099867 139.268288 
M 410.672514 48.34254 
L 414.315213 350.269877 
L 415.506095 39.419042 
L 418.308171 147.84737 
L 419.499053 131.753763 
L 420.549832 46.338666 
L 423.912323 65.156288 
L 423.982375 217.638517 
L 424.822998 92.584303 
L 424.89305 176.089458 
L 425.943828 244.722117 
L 426.224036 344.352189 
L 426.784451 259.688545 
L 426.994607 156.457763 
L 430.146942 114.595598 
L 432.318551 301.425467 
L 434.350056 165.663055 
L 434.910471 187.392556 
L 438.062807 75.801865 
M 440.934935 192.684034 
L 444.927893 270.615916 
L 445.908619 112.560415 
L 447.870073 258.248261 
L 448.920851 252.267952 
L 449.411214 306.591703 
L 449.97163 291.93838 
L 452.423446 207.838325 
L 453.824484 105.421616 
L 454.665107 120.73246 
L 457.186975 172.206954 
L 457.74739 79.026848 
L 461.530193 217.826381 
L 462.580971 117.476166 
M 464.75258 300.204357 
L 465.733307 120.231492 
L 466.083566 314.419333 
L 471.547614 72.921297 
M 475.260365 116.50554 
L 476.871559 313.229533 
L 478.342649 299.515525 
L 480.163998 69.038793 
L 481.915296 39.575594 
L 483.316334 130.783137 
L 486.608773 315.984859 
M 495.015001 148.598822 
L 496.275935 346.136889 
L 496.696246 132.630458 
M 497.747025 229.379962 
L 500.89936 179.063958 
L 502.37045 45.806387 
L 504.752215 124.489722 
L 506.43346 39.199868 
L 508.324861 301.58202 
L 508.605069 200.762148 
L 516.801141 254.835414 
L 521.91493 189.552982 
L 524.436798 162.406761 
L 525.557629 73.829302 
L 529.060224 321.965168 
M 533.263338 103.82478 
L 533.473493 316.297964 
L 534.174012 100.505865 
L 536.765932 321.213715 
L 538.026867 211.814761 
L 540.268527 253.36382 
L 542.159929 173.77248 
L 542.370084 229.066857 
L 543.841174 316.579758 
L 545.592472 272.525858 
L 545.872679 155.70631 
L 546.363043 212.503592 
L 548.744807 283.108813 
L 549.795586 266.60817 
L 550.426053 90.611741 
L 551.476831 261.661108 
L 551.897143 91.864161 
L 552.52761 282.075566 
L 555.399738 210.061372 
L 556.100257 303.867688 
L 556.940879 122.924197 
L 558.201814 109.429363 
L 558.341917 75.48876 
L 559.18254 243.375764 
L 559.883059 98.564612 
L 561.073941 76.396765 
L 561.284097 309.002613 
M 562.194772 267.390933 
L 565.557263 252.643678 
L 567.028353 82.1579 
L 570.601 227.720505 
L 571.021311 60.522332 
L 571.72183 320.837989 
L 572.07209 179.81541 
L 574.103595 267.610106 
L 578.586916 114.658219 
L 578.656968 166.101403 
L 580.19811 322.622689 
M 587.133248 224.777316 
L 588.254078 154.798305 
L 589.304857 278.725341 
L 590.705895 44.522656 
L 591.756673 264.698228 
L 592.317088 224.558142 
L 592.947555 219.141422 
M 596.590254 247.289579 
L 597.220721 224.245037 
L 597.851188 279.163688 
L 598.691811 100.599796 
L 599.602486 285.832829 
L 602.824873 115.754088 
M 606.74778 51.630144 
L 609.129544 55.199543 
L 610.81079 85.570747 
L 614.313385 185.419993 
L 615.644371 155.549758 
L 618.306343 268.361559 
L 619.427173 278.944514 
L 620.548004 163.283456 
M 622.369353 70.009419 
L 623.209976 324.376078 
L 623.560235 211.971313 
M 625.031325 197.568475 
L 628.954232 226.593326 
L 633.157346 202.484226 
L 634.06802 257.183703 
L 636.029473 147.565575 
L 636.239629 296.008747 
L 636.449785 230.726315 
L 636.589889 230.757625 
L 641.493522 154.579132 
L 643.034663 255.649488 
L 645.766687 349.393183 
L 650.039853 167.291202 
L 651.02058 240.651749 
L 652.561722 184.418056 
L 652.982033 280.572661 
M 653.262241 100.349312 
L 653.6125 48.96875 
L 654.242967 318.4897 
M 654.593227 232.949361 
L 657.605458 136.011994 
L 658.376029 312.008423 
L 658.516133 203.079126 
L 660.057275 333.049092 
L 664.400492 313.07298 
L 665.241115 43.270235 
L 666.221842 127.714706 
L 666.291894 302.646577 
L 667.062465 337.996154 
L 667.202568 144.340592 
L 667.552828 67.160162 
L 670.004644 182.288941 
L 672.036149 197.599785 
L 672.456461 120.795081 
L 673.437187 151.667253 
L 673.437187 151.667253 
" clip-path="url(#pcd2b069a36)" style="fill: none; stroke: #1f6feb; stroke-width: 1.6; stroke-linecap: square"/>
   </g>
   <g id="line2d_24">
    <path d="M 79.537187 85.195021 
L 82.129108 147.393367 
L 83.460094 153.583457 
L 85.91191 191.619476 
L 86.26217 207.074348 
L 87.523104 220.105786 
L 87.803312 249.650392 
L 87.873363 207.362405 
L 89.344453 209.704432 
L 92.146529 218.383708 
L 92.216581 209.453948 
L 92.496789 245.836771 
L 95.368917 204.824687 
L 96.699903 208.981159 
L 97.540526 163.549595 
L 98.591304 150.425269 
L 101.813691 173.889894 
L 133.617254 216.495683 
L 137.960471 201.100301 
L 140.762547 152.475065 
L 141.95343 148.32329 
L 142.163585 169.099385 
L 145.035713 179.35358 
L 145.105765 210.507547 
L 145.946388 249.089934 
L 146.716959 258.893258 
L 148.188049 281.950324 
L 149.028671 255.912496 
L 150.009398 204.926447 
L 154.562771 171.612054 
L 155.123187 161.725758 
L 155.543498 167.604308 
L 156.173965 155.086362 
L 158.20547 200.793458 
L 159.256249 228.371763 
L 161.638013 240.676798 
L 162.128376 267.253166 
L 164.370037 200.286228 
L 167.872632 119.680427 
L 168.783307 139.719159 
L 168.923411 149.450468 
L 171.86559 200.611857 
L 173.967147 218.648282 
L 174.387459 180.238102 
L 175.928601 190.437504 
L 178.590573 90.329946 
L 178.590573 134.772097 
L 180.271818 222.203591 
L 185.245503 228.832028 
L 193.721783 219.000525 
L 194.422302 237.262385 
L 195.47308 204.237615 
L 195.963444 180.579387 
L 196.804066 158.517995 
L 197.084274 174.899659 
L 199.88635 172.801854 
L 202.128011 134.045693 
L 203.529049 94.663322 
L 203.879308 114.088368 
L 204.930087 113.693855 
L 205.560554 124.320646 
L 210.043875 140.348501 
L 210.814446 145.676507 
L 212.285536 67.160162 
L 213.686574 134.195983 
L 216.908961 186.190232 
L 217.189169 177.053822 
L 217.259221 158.292559 
L 218.099844 144.833732 
L 221.672491 113.640628 
L 222.02275 142.876825 
L 229.097992 205.878286 
L 230.218822 279.251357 
L 231.199549 272.068724 
L 232.880794 271.098098 
L 233.371158 215.822507 
L 234.071677 204.008005 
L 235.822974 149.715564 
L 238.905258 111.758865 
L 240.656555 108.38046 
L 240.726607 145.710427 
L 242.618008 189.529499 
L 243.598735 195.50198 
L 244.369306 179.776272 
L 244.999773 190.29191 
L 245.840396 165.412571 
L 246.821122 182.35939 
L 248.502368 180.934761 
L 248.782576 205.505691 
L 248.922679 229.780737 
L 249.483095 231.603009 
L 250.463821 219.229092 
L 252.004963 240.031801 
L 254.666935 195.82761 
L 255.57761 194.515699 
L 257.398959 157.81977 
L 257.819271 136.317271 
L 258.870049 166.500612 
L 261.672125 178.5943 
L 262.162488 208.251624 
L 262.722903 221.758982 
L 263.423422 204.381644 
L 263.563526 197.812697 
L 266.505706 201.563697 
L 270.70882 214.751688 
L 270.989028 206.429352 
L 272.880429 164.681992 
L 274.001259 163.617435 
L 274.631726 187.079451 
L 275.822609 172.970931 
L 279.535359 162.164105 
L 279.605411 196.965747 
L 279.745515 165.404744 
L 282.057228 219.573508 
L 282.127279 187.906048 
L 282.337435 180.704629 
L 284.859304 139.949291 
L 286.330393 174.930969 
L 291.654338 186.033679 
L 291.72439 188.156532 
L 292.775168 161.924579 
L 297.188438 131.083718 
L 298.37932 178.23736 
L 299.149891 163.007923 
L 302.022019 179.114054 
L 303.282953 218.646716 
L 304.683991 246.982736 
L 305.38451 229.273506 
L 306.435288 207.011727 
L 306.645444 188.306823 
L 306.8556 157.447175 
L 310.848558 148.755375 
L 314.000894 147.471644 
L 314.841516 145.1985 
L 316.312606 135.893014 
L 318.063904 136.901212 
L 319.955305 198.708177 
L 319.955305 157.378292 
L 321.776654 198.319927 
L 322.687329 138.485525 
L 323.387848 132.338226 
L 324.858938 165.089029 
L 325.769613 205.327221 
L 328.221429 244.271245 
L 329.482363 254.860463 
L 330.533142 230.989323 
L 336.417501 245.523666 
L 338.378954 225.597651 
L 340.690667 220.688162 
L 341.601342 188.882937 
L 343.212535 205.070475 
L 343.212535 248.009721 
L 345.244041 212.772863 
L 345.804456 240.745681 
L 347.205494 194.046041 
L 352.669542 194.421767 
L 353.229957 185.326062 
L 355.121358 246.807397 
L 355.751825 214.04407 
L 356.312241 172.870737 
L 357.222915 188.432065 
L 357.923434 172.876999 
L 358.13359 172.795592 
L 358.13359 193.318072 
L 360.235147 198.852206 
L 362.1966 157.608424 
L 362.686963 189.779983 
L 363.037223 151.902082 
L 363.527586 129.336591 
L 364.088001 110.719356 
L 364.368209 154.178357 
L 365.769247 159.451048 
L 366.329662 189.545154 
L 367.450493 214.116084 
L 371.373399 150.900146 
L 372.984593 201.278771 
L 373.404904 199.69759 
L 374.035371 149.459862 
L 375.576513 175.870285 
L 382.441599 159.638911 
L 383.352274 139.725421 
L 383.562429 164.441945 
L 385.734038 210.797169 
L 385.944194 267.226552 
L 386.854869 231.657802 
L 386.994972 212.015148 
L 392.178813 203.555046 
L 396.522031 193.829999 
L 399.81447 202.476398 
L 400.444937 208.488018 
L 402.616546 220.229463 
L 402.966805 242.561691 
L 403.737376 225.747942 
L 407.029815 203.029029 
L 407.099867 197.831483 
L 409.201424 245.450086 
L 410.672514 213.043699 
L 414.315213 202.578158 
L 415.506095 128.669677 
L 418.308171 132.505215 
L 419.499053 149.18746 
L 420.549832 143.125744 
L 423.912323 138.366545 
L 423.982375 152.324774 
L 424.822998 144.490882 
L 424.89305 170.441041 
L 425.943828 159.238137 
L 426.224036 215.077317 
L 426.784451 223.487322 
L 426.994607 236.262014 
L 430.146942 223.963242 
L 432.318551 210.794038 
L 434.350056 237.238903 
L 434.910471 231.822183 
L 438.062807 158.668285 
L 439.884156 180.793864 
L 440.164364 178.5943 
L 440.934935 200.532537 
L 444.927893 231.649975 
L 445.908619 191.953455 
L 447.870073 245.66926 
L 448.920851 241.082269 
L 449.411214 289.590091 
L 449.97163 277.261574 
L 452.423446 231.120827 
L 453.824484 201.75156 
L 454.665107 164.579711 
L 457.186975 140.633426 
L 457.74739 137.045241 
L 461.530193 147.448161 
L 462.580971 146.634087 
L 464.472373 155.633252 
L 464.75258 191.776028 
L 465.733307 184.01102 
L 466.083566 244.951727 
L 471.547614 204.243877 
L 474.489794 195.522854 
L 475.260365 159.442699 
L 476.871559 167.552123 
L 478.342649 243.083533 
L 480.163998 199.572348 
L 481.915296 129.108024 
L 483.316334 129.443047 
L 486.608773 254.929346 
L 493.263703 285.965898 
L 494.594689 289.464849 
L 495.015001 251.266015 
L 496.275935 270.24019 
L 496.696246 209.122056 
L 497.046506 209.122056 
L 497.747025 214.186533 
L 500.89936 221.802817 
L 502.37045 146.720191 
L 504.752215 144.685007 
L 506.43346 123.58798 
L 508.324861 154.297337 
L 508.605069 169.551822 
L 516.801141 203.555046 
L 521.91493 216.674153 
L 524.436798 182.620833 
L 525.557629 146.488493 
L 529.060224 158.192365 
L 532.002403 157.138767 
L 533.263338 142.508926 
L 533.473493 203.126092 
L 533.963857 221.074847 
L 534.174012 165.710021 
L 536.765932 200.555498 
L 538.026867 179.658858 
L 540.268527 245.874344 
L 542.159929 252.217855 
L 542.370084 233.945036 
L 543.841174 231.421408 
L 545.592472 267.973308 
L 545.872679 255.098423 
L 546.363043 254.0777 
L 548.744807 222.122184 
L 549.795586 220.938646 
L 550.426053 207.919732 
L 551.476831 217.751235 
L 551.897143 198.770799 
L 552.52761 198.564149 
L 555.399738 201.425931 
L 556.100257 170.491137 
L 556.940879 189.621865 
L 558.201814 195.038585 
L 558.341917 149.362799 
L 559.18254 179.990749 
L 559.883059 129.956539 
L 561.073941 120.651053 
L 561.284097 160.565703 
L 562.194772 187.838731 
L 565.557263 194.368539 
L 567.028353 146.732715 
L 570.601 181.1555 
L 571.021311 142.731231 
L 571.72183 225.246974 
L 572.07209 197.224059 
L 574.103595 207.196459 
L 578.586916 208.614826 
L 578.656968 177.667508 
L 580.19811 181.055307 
L 581.31894 218.757869 
L 583.910861 264.259881 
L 583.910861 244.805611 
L 587.133248 253.653442 
L 588.254078 225.92015 
L 589.304857 159.213088 
L 590.705895 140.952794 
L 591.756673 178.456534 
L 592.317088 211.251172 
L 592.947555 199.334388 
L 593.367867 188.230112 
L 596.590254 209.067263 
L 597.220721 212.102818 
L 597.851188 255.737157 
L 598.691811 235.610756 
L 599.602486 227.426186 
L 602.824873 222.811015 
L 606.117313 208.722847 
L 606.74778 205.255207 
L 609.129544 135.878924 
L 610.81079 172.513797 
L 614.313385 177.473383 
L 615.644371 128.628973 
L 618.306343 196.566538 
L 619.427173 247.176861 
L 620.548004 248.723601 
L 621.458678 219.697184 
L 622.369353 186.312343 
L 623.209976 197.670234 
L 623.560235 209.842198 
L 624.400858 202.118937 
L 625.031325 200.981321 
L 628.954232 207.971395 
L 633.157346 230.406947 
L 634.06802 259.688545 
L 636.239629 196.309792 
L 636.449785 201.958209 
L 636.589889 196.672994 
L 641.493522 228.017955 
L 643.034663 217.92814 
L 645.766687 247.594857 
L 650.039853 227.332254 
L 651.02058 244.546778 
L 652.561722 230.300491 
L 652.982033 216.536387 
L 653.122137 218.233417 
L 653.262241 201.497945 
L 653.6125 135.471887 
L 654.242967 144.951147 
L 654.523175 144.951147 
L 654.593227 178.101159 
L 657.605458 182.508115 
L 658.516133 223.493585 
L 660.057275 259.619662 
L 664.400492 269.344709 
L 665.241115 215.597072 
L 666.291894 175.575966 
L 667.062465 180.5606 
L 667.202568 200.774672 
L 667.552828 195.971638 
L 669.724437 204.250139 
L 670.004644 180.178612 
L 672.456461 147.390236 
L 673.437187 150.990946 
L 673.437187 150.990946 
" clip-path="url(#pcd2b069a36)" style="fill: none; stroke: #2da44e; stroke-width: 2; stroke-linecap: square"/>
   </g>
   <g id="patch_3">
    <path d="M 49.842188 366.99126 
L 49.842188 23.229937 
" style="fill: none; stroke: #e5e7eb; stroke-width: 0.8; stroke-linejoin: miter; stroke-linecap: square"/>
   </g>
   <g id="patch_4">
    <path d="M 703.132187 366.99126 
L 703.132187 23.229937 
" style="fill: none; stroke: #e5e7eb; stroke-width: 0.8; stroke-linejoin: miter; stroke-linecap: square"/>
   </g>
   <g id="patch_5">
    <path d="M 49.842187 366.99126 
L 703.132187 366.99126 
" style="fill: none; stroke: #e5e7eb; stroke-width: 0.8; stroke-linejoin: miter; stroke-linecap: square"/>
   </g>
   <g id="patch_6">
    <path d="M 49.842187 23.229937 
L 703.132187 23.229937 
" style="fill: none; stroke: #e5e7eb; stroke-width: 0.8; stroke-linejoin: miter; stroke-linecap: square"/>
   </g>
   <g id="text_14">
    <!-- Serie temporal — Entidad e-0016 -->
    <g style="fill: #111827" transform="translate(253.624062 17.229937) scale(0.132 -0.132)">
     <defs>
      <path id="DejaVuSans-Bold-53" d="M 3834 4519 
L 3834 3531 
Q 3450 3703 3084 3790 
Q 2719 3878 2394 3878 
Q 1963 3878 1756 3759 
Q 1550 3641 1550 3391 
Q 1550 3203 1689 3098 
Q 1828 2994 2194 2919 
L 2706 2816 
Q 3484 2659 3812 2340 
Q 4141 2022 4141 1434 
Q 4141 663 3683 286 
Q 3225 -91 2284 -91 
Q 1841 -91 1394 -6 
Q 947 78 500 244 
L 500 1259 
Q 947 1022 1364 901 
Q 1781 781 2169 781 
Q 2563 781 2772 912 
Q 2981 1044 2981 1288 
Q 2981 1506 2839 1625 
Q 2697 1744 2272 1838 
L 1806 1941 
Q 1106 2091 782 2419 
Q 459 2747 459 3303 
Q 459 4000 909 4375 
Q 1359 4750 2203 4750 
Q 2588 4750 2994 4692 
Q 3400 4634 3834 4519 
z
" transform="scale(0.015625)"/>
      <path id="DejaVuSans-Bold-65" d="M 4031 1759 
L 4031 1441 
L 1416 1441 
Q 1456 1047 1700 850 
Q 1944 653 2381 653 
Q 2734 653 3104 758 
Q 3475 863 3866 1075 
L 3866 213 
Q 3469 63 3072 -14 
Q 2675 -91 2278 -91 
Q 1328 -91 801 392 
Q 275 875 275 1747 
Q 275 2603 792 3093 
Q 1309 3584 2216 3584 
Q 3041 3584 3536 3087 
Q 4031 2591 4031 1759 
z
M 2881 2131 
Q 2881 2450 2695 2645 
Q 2509 2841 2209 2841 
Q 1884 2841 1681 2658 
Q 1478 2475 1428 2131 
L 2881 2131 
z
" transform="scale(0.015625)"/>
      <path id="DejaVuSans-Bold-72" d="M 3138 2547 
Q 2991 2616 2845 2648 
Q 2700 2681 2553 2681 
Q 2122 2681 1889 2404 
Q 1656 2128 1656 1613 
L 1656 0 
L 538 0 
L 538 3500 
L 1656 3500 
L 1656 2925 
Q 1872 3269 2151 3426 
Q 2431 3584 2822 3584 
Q 2878 3584 2943 3579 
Q 3009 3575 3134 3559 
L 3138 2547 
z
" transform="scale(0.015625)"/>
      <path id="DejaVuSans-Bold-69" d="M 538 3500 
L 1656 3500 
L 1656 0 
L 538 0 
L 538 3500 
z
M 538 4863 
L 1656 4863 
L 1656 3950 
L 538 3950 
L 538 4863 
z
" transform="scale(0.015625)"/>
      <path id="DejaVuSans-Bold-20" transform="scale(0.015625)"/>
      <path id="DejaVuSans-Bold-74" d="M 1759 4494 
L 1759 3500 
L 2913 3500 
L 2913 2700 
L 1759 2700 
L 1759 1216 
Q 1759 972 1856 886 
Q 1953 800 2241 800 
L 2816 800 
L 2816 0 
L 1856 0 
Q 1194 0 917 276 
Q 641 553 641 1216 
L 641 2700 
L 84 2700 
L 84 3500 
L 641 3500 
L 641 4494 
L 1759 4494 
z
" transform="scale(0.015625)"/>
      <path id="DejaVuSans-Bold-6d" d="M 3781 2919 
Q 3994 3244 4286 3414 
Q 4578 3584 4928 3584 
Q 5531 3584 5847 3212 
Q 6163 2841 6163 2131 
L 6163 0 
L 5038 0 
L 5038 1825 
Q 5041 1866 5042 1909 
Q 5044 1953 5044 2034 
Q 5044 2406 4934 2573 
Q 4825 2741 4581 2741 
Q 4263 2741 4089 2478 
Q 3916 2216 3909 1719 
L 3909 0 
L 2784 0 
L 2784 1825 
Q 2784 2406 2684 2573 
Q 2584 2741 2328 2741 
Q 2006 2741 1831 2477 
Q 1656 2213 1656 1722 
L 1656 0 
L 531 0 
L 531 3500 
L 1656 3500 
L 1656 2988 
Q 1863 3284 2130 3434 
Q 2397 3584 2719 3584 
Q 3081 3584 3359 3409 
Q 3638 3234 3781 2919 
z
" transform="scale(0.015625)"/>
      <path id="DejaVuSans-Bold-70" d="M 1656 506 
L 1656 -1331 
L 538 -1331 
L 538 3500 
L 1656 3500 
L 1656 2988 
Q 1888 3294 2169 3439 
Q 2450 3584 2816 3584 
Q 3463 3584 3878 3070 
Q 4294 2556 4294 1747 
Q 4294 938 3878 423 
Q 3463 -91 2816 -91 
Q 2450 -91 2169 54 
Q 1888 200 1656 506 
z
M 2400 2772 
Q 2041 2772 1848 2508 
Q 1656 2244 1656 1747 
Q 1656 1250 1848 986 
Q 2041 722 2400 722 
Q 2759 722 2948 984 
Q 3138 1247 3138 1747 
Q 3138 2247 2948 2509 
Q 2759 2772 2400 2772 
z
" transform="scale(0.015625)"/>
      <path id="DejaVuSans-Bold-6f" d="M 2203 2784 
Q 1831 2784 1636 2517 
Q 1441 2250 1441 1747 
Q 1441 1244 1636 976 
Q 1831 709 2203 709 
Q 2569 709 2762 976 
Q 2956 1244 2956 1747 
Q 2956 2250 2762 2517 
Q 2569 2784 2203 2784 
z
M 2203 3584 
Q 3106 3584 3614 3096 
Q 4122 2609 4122 1747 
Q 4122 884 3614 396 
Q 3106 -91 2203 -91 
Q 1297 -91 786 396 
Q 275 884 275 1747 
Q 275 2609 786 3096 
Q 1297 3584 2203 3584 
z
" transform="scale(0.015625)"/>
      <path id="DejaVuSans-Bold-61" d="M 2106 1575 
Q 1756 1575 1579 1456 
Q 1403 1338 1403 1106 
Q 1403 894 1545 773 
Q 1688 653 1941 653 
Q 2256 653 2472 879 
Q 2688 1106 2688 1447 
L 2688 1575 
L 2106 1575 
z
M 3816 1997 
L 3816 0 
L 2688 0 
L 2688 519 
Q 2463 200 2181 54 
Q 1900 -91 1497 -91 
Q 953 -91 614 226 
Q 275 544 275 1050 
Q 275 1666 698 1953 
Q 1122 2241 2028 2241 
L 2688 2241 
L 2688 2328 
Q 2688 2594 2478 2717 
Q 2269 2841 1825 2841 
Q 1466 2841 1156 2769 
Q 847 2697 581 2553 
L 581 3406 
Q 941 3494 1303 3539 
Q 1666 3584 2028 3584 
Q 2975 3584 3395 3211 
Q 3816 2838 3816 1997 
z
" transform="scale(0.015625)"/>
      <path id="DejaVuSans-Bold-6c" d="M 538 4863 
L 1656 4863 
L 1656 0 
L 538 0 
L 538 4863 
z
" transform="scale(0.015625)"/>
      <path id="DejaVuSans-Bold-2014" d="M 344 2156 
L 6056 2156 
L 6056 1350 
L 344 1350 
L 344 2156 
z
" transform="scale(0.015625)"/>
      <path id="DejaVuSans-Bold-45" d="M 588 4666 
L 3834 4666 
L 3834 3756 
L 1791 3756 
L 1791 2888 
L 3713 2888 
L 3713 1978 
L 1791 1978 
L 1791 909 
L 3903 909 
L 3903 0 
L 588 0 
L 588 4666 
z
" transform="scale(0.015625)"/>
      <path id="DejaVuSans-Bold-6e" d="M 4056 2131 
L 4056 0 
L 2931 0 
L 2931 347 
L 2931 1631 
Q 2931 2084 2911 2256 
Q 2891 2428 2841 2509 
Q 2775 2619 2662 2680 
Q 2550 2741 2406 2741 
Q 2056 2741 1856 2470 
Q 1656 2200 1656 1722 
L 1656 0 
L 538 0 
L 538 3500 
L 1656 3500 
L 1656 2988 
Q 1909 3294 2193 3439 
Q 2478 3584 2822 3584 
Q 3428 3584 3742 3212 
Q 4056 2841 4056 2131 
z
" transform="scale(0.015625)"/>
      <path id="DejaVuSans-Bold-64" d="M 2919 2988 
L 2919 4863 
L 4044 4863 
L 4044 0 
L 2919 0 
L 2919 506 
Q 2688 197 2409 53 
Q 2131 -91 1766 -91 
Q 1119 -91 703 423 
Q 288 938 288 1747 
Q 288 2556 703 3070 
Q 1119 3584 1766 3584 
Q 2128 3584 2408 3439 
Q 2688 3294 2919 2988 
z
M 2181 722 
Q 2541 722 2730 984 
Q 2919 1247 2919 1747 
Q 2919 2247 2730 2509 
Q 2541 2772 2181 2772 
Q 1825 2772 1636 2509 
Q 1447 2247 1447 1747 
Q 1447 1247 1636 984 
Q 1825 722 2181 722 
z
" transform="scale(0.015625)"/>
      <path id="DejaVuSans-Bold-2d" d="M 347 2297 
L 2309 2297 
L 2309 1388 
L 347 1388 
L 347 2297 
z
" transform="scale(0.015625)"/>
      <path id="DejaVuSans-Bold-30" d="M 2944 2338 
Q 2944 3213 2780 3570 
Q 2616 3928 2228 3928 
Q 1841 3928 1675 3570 
Q 1509 3213 1509 2338 
Q 1509 1453 1675 1090 
Q 1841 728 2228 728 
Q 2613 728 2778 1090 
Q 2944 1453 2944 2338 
z
M 4147 2328 
Q 4147 1169 3647 539 
Q 3147 -91 2228 -91 
Q 1306 -91 806 539 
Q 306 1169 306 2328 
Q 306 3491 806 4120 
Q 1306 4750 2228 4750 
Q 3147 4750 3647 4120 
Q 4147 3491 4147 2328 
z
" transform="scale(0.015625)"/>
      <path id="DejaVuSans-Bold-31" d="M 750 831 
L 1813 831 
L 1813 3847 
L 722 3622 
L 722 4441 
L 1806 4666 
L 2950 4666 
L 2950 831 
L 4013 831 
L 4013 0 
L 750 0 
L 750 831 
z
" transform="scale(0.015625)"/>
      <path id="DejaVuSans-Bold-36" d="M 2316 2303 
Q 2000 2303 1842 2098 
Q 1684 1894 1684 1484 
Q 1684 1075 1842 870 
Q 2000 666 2316 666 
Q 2634 666 2792 870 
Q 2950 1075 2950 1484 
Q 2950 1894 2792 2098 
Q 2634 2303 2316 2303 
z
M 3803 4544 
L 3803 3681 
Q 3506 3822 3243 3889 
Q 2981 3956 2731 3956 
Q 2194 3956 1894 3657 
Q 1594 3359 1544 2772 
Q 1750 2925 1990 3001 
Q 2231 3078 2516 3078 
Q 3231 3078 3670 2659 
Q 4109 2241 4109 1563 
Q 4109 813 3618 361 
Q 3128 -91 2303 -91 
Q 1394 -91 895 523 
Q 397 1138 397 2266 
Q 397 3422 980 4083 
Q 1563 4744 2578 4744 
Q 2900 4744 3203 4694 
Q 3506 4644 3803 4544 
z
" transform="scale(0.015625)"/>
     </defs>
     <use xlink:href="#DejaVuSans-Bold-53"/>
     <use xlink:href="#DejaVuSans-Bold-65" x="72.021484"/>
     <use xlink:href="#DejaVuSans-Bold-72" x="139.84375"/>
     <use xlink:href="#DejaVuSans-Bold-69" x="189.160156"/>
     <use xlink:href="#DejaVuSans-Bold-65" x="223.4375"/>
     <use xlink:href="#DejaVuSans-Bold-20" x="291.259766"/>
     <use xlink:href="#DejaVuSans-Bold-74" x="326.074219"/>
     <use xlink:href="#DejaVuSans-Bold-65" x="373.876953"/>
     <use xlink:href="#DejaVuSans-Bold-6d" x="441.699219"/>
     <use xlink:href="#DejaVuSans-Bold-70" x="545.898438"/>
     <use xlink:href="#DejaVuSans-Bold-6f" x="617.480469"/>
     <use xlink:href="#DejaVuSans-Bold-72" x="686.181641"/>
     <use xlink:href="#DejaVuSans-Bold-61" x="735.498047"/>
     <use xlink:href="#DejaVuSans-Bold-6c" x="802.978516"/>
     <use xlink:href="#DejaVuSans-Bold-20" x="837.255859"/>
     <use xlink:href="#DejaVuSans-Bold-2014" x="872.070312"/>
     <use xlink:href="#DejaVuSans-Bold-20" x="972.070312"/>
     <use xlink:href="#DejaVuSans-Bold-45" x="1006.884766"/>
     <use xlink:href="#DejaVuSans-Bold-6e" x="1075.195312"/>
     <use xlink:href="#DejaVuSans-Bold-74" x="1146.386719"/>
     <use xlink:href="#DejaVuSans-Bold-69" x="1194.189453"/>
     <use xlink:href="#DejaVuSans-Bold-64" x="1228.466797"/>
     <use xlink:href="#DejaVuSans-Bold-61" x="1300.048828"/>
     <use xlink:href="#DejaVuSans-Bold-64" x="1367.529297"/>
     <use xlink:href="#DejaVuSans-Bold-20" x="1439.111328"/>
     <use xlink:href="#DejaVuSans-Bold-65" x="1473.925781"/>
     <use xlink:href="#DejaVuSans-Bold-2d" x="1541.748047"/>
     <use xlink:href="#DejaVuSans-Bold-30" x="1583.251953"/>
     <use xlink:href="#DejaVuSans-Bold-30" x="1652.832031"/>
     <use xlink:href="#DejaVuSans-Bold-31" x="1722.412109"/>
     <use xlink:href="#DejaVuSans-Bold-36" x="1791.992188"/>
    </g>
   </g>
   <g id="legend_1">
    <g id="line2d_25">
     <path d="M 59.742188 334.807666 
L 70.742188 334.807666 
L 81.742188 334.807666 
" style="fill: none; stroke: #1f6feb; stroke-width: 1.6; stroke-linecap: square"/>
    </g>
    <g id="text_15">
     <!-- Valor (curated) -->
     <g transform="translate(90.542187 338.657666) scale(0.11 -0.11)">
      <defs>
       <path id="DejaVuSans-28" d="M 1984 4856 
Q 1566 4138 1362 3434 
Q 1159 2731 1159 2009 
Q 1159 1288 1364 580 
Q 1569 -128 1984 -844 
L 1484 -844 
Q 1016 -109 783 600 
Q 550 1309 550 2009 
Q 550 2706 781 3412 
Q 1013 4119 1484 4856 
L 1984 4856 
z
" transform="scale(0.015625)"/>
       <path id="DejaVuSans-63" d="M 3122 3366 
L 3122 2828 
Q 2878 2963 2633 3030 
Q 2388 3097 2138 3097 
Q 1578 3097 1268 2742 
Q 959 2388 959 1747 
Q 959 1106 1268 751 
Q 1578 397 2138 397 
Q 2388 397 2633 464 
Q 2878 531 3122 666 
L 3122 134 
Q 2881 22 2623 -34 
Q 2366 -91 2075 -91 
Q 1284 -91 818 406 
Q 353 903 353 1747 
Q 353 2603 823 3093 
Q 1294 3584 2113 3584 
Q 2378 3584 2631 3529 
Q 2884 3475 3122 3366 
z
" transform="scale(0.015625)"/>
       <path id="DejaVuSans-75" d="M 544 1381 
L 544 3500 
L 1119 3500 
L 1119 1403 
Q 1119 906 1312 657 
Q 1506 409 1894 409 
Q 2359 409 2629 706 
Q 2900 1003 2900 1516 
L 2900 3500 
L 3475 3500 
L 3475 0 
L 2900 0 
L 2900 538 
Q 2691 219 2414 64 
Q 2138 -91 1772 -91 
Q 1169 -91 856 284 
Q 544 659 544 1381 
z
M 1991 3584 
L 1991 3584 
z
" transform="scale(0.015625)"/>
       <path id="DejaVuSans-74" d="M 1172 4494 
L 1172 3500 
L 2356 3500 
L 2356 3053 
L 1172 3053 
L 1172 1153 
Q 1172 725 1289 603 
Q 1406 481 1766 481 
L 2356 481 
L 2356 0 
L 1766 0 
Q 1100 0 847 248 
Q 594 497 594 1153 
L 594 3053 
L 172 3053 
L 172 3500 
L 594 3500 
L 594 4494 
L 1172 4494 
z
" transform="scale(0.015625)"/>
       <path id="DejaVuSans-64" d="M 2906 2969 
L 2906 4863 
L 3481 4863 
L 3481 0 
L 2906 0 
L 2906 525 
Q 2725 213 2448 61 
Q 2172 -91 1784 -91 
Q 1150 -91 751 415 
Q 353 922 353 1747 
Q 353 2572 751 3078 
Q 1150 3584 1784 3584 
Q 2172 3584 2448 3432 
Q 2725 3281 2906 2969 
z
M 947 1747 
Q 947 1113 1208 752 
Q 1469 391 1925 391 
Q 2381 391 2643 752 
Q 2906 1113 2906 1747 
Q 2906 2381 2643 2742 
Q 2381 3103 1925 3103 
Q 1469 3103 1208 2742 
Q 947 2381 947 1747 
z
" transform="scale(0.015625)"/>
       <path id="DejaVuSans-29" d="M 513 4856 
L 1013 4856 
Q 1481 4119 1714 3412 
Q 1947 2706 1947 2009 
Q 1947 1309 1714 600 
Q 1481 -109 1013 -844 
L 513 -844 
Q 928 -128 1133 580 
Q 1338 1288 1338 2009 
Q 1338 2731 1133 3434 
Q 928 4138 513 4856 
z
" transform="scale(0.015625)"/>
      </defs>
      <use xlink:href="#DejaVuSans-56"/>
      <use xlink:href="#DejaVuSans-61" x="60.658203"/>
      <use xlink:href="#DejaVuSans-6c" x="121.9375"/>
      <use xlink:href="#DejaVuSans-6f" x="149.720703"/>
      <use xlink:href="#DejaVuSans-72" x="210.902344"/>
      <use xlink:href="#DejaVuSans-20" x="252.015625"/>
      <use xlink:href="#DejaVuSans-28" x="283.802734"/>
      <use xlink:href="#DejaVuSans-63" x="322.816406"/>
      <use xlink:href="#DejaVuSans-75" x="377.796875"/>
      <use xlink:href="#DejaVuSans-72" x="441.175781"/>
      <use xlink:href="#DejaVuSans-61" x="482.289062"/>
      <use xlink:href="#DejaVuSans-74" x="543.568359"/>
      <use xlink:href="#DejaVuSans-65" x="582.777344"/>
      <use xlink:href="#DejaVuSans-64" x="644.300781"/>
      <use xlink:href="#DejaVuSans-29" x="707.777344"/>
     </g>
    </g>
    <g id="line2d_26">
     <path d="M 59.742188 350.953604 
L 70.742188 350.953604 
L 81.742188 350.953604 
" style="fill: none; stroke: #2da44e; stroke-width: 2; stroke-linecap: square"/>
    </g>
    <g id="text_16">
     <!-- Media móvil (5) -->
     <g transform="translate(90.542187 354.803604) scale(0.11 -0.11)">
      <defs>
       <path id="DejaVuSans-4d" d="M 628 4666 
L 1569 4666 
L 2759 1491 
L 3956 4666 
L 4897 4666 
L 4897 0 
L 4281 0 
L 4281 4097 
L 3078 897 
L 2444 897 
L 1241 4097 
L 1241 0 
L 628 0 
L 628 4666 
z
" transform="scale(0.015625)"/>
       <path id="DejaVuSans-f3" d="M 1959 3097 
Q 1497 3097 1228 2736 
Q 959 2375 959 1747 
Q 959 1119 1226 758 
Q 1494 397 1959 397 
Q 2419 397 2687 759 
Q 2956 1122 2956 1747 
Q 2956 2369 2687 2733 
Q 2419 3097 1959 3097 
z
M 1959 3584 
Q 2709 3584 3137 3096 
Q 3566 2609 3566 1747 
Q 3566 888 3137 398 
Q 2709 -91 1959 -91 
Q 1206 -91 779 398 
Q 353 888 353 1747 
Q 353 2609 779 3096 
Q 1206 3584 1959 3584 
z
M 2394 5119 
L 3016 5119 
L 1998 3944 
L 1519 3944 
L 2394 5119 
z
" transform="scale(0.015625)"/>
       <path id="DejaVuSans-76" d="M 191 3500 
L 800 3500 
L 1894 563 
L 2988 3500 
L 3597 3500 
L 2284 0 
L 1503 0 
L 191 3500 
z
" transform="scale(0.015625)"/>
       <path id="DejaVuSans-35" d="M 691 4666 
L 3169 4666 
L 3169 4134 
L 1269 4134 
L 1269 2991 
Q 1406 3038 1543 3061 
Q 1681 3084 1819 3084 
Q 2600 3084 3056 2656 
Q 3513 2228 3513 1497 
Q 3513 744 3044 326 
Q 2575 -91 1722 -91 
Q 1428 -91 1123 -41 
Q 819 9 494 109 
L 494 744 
Q 775 591 1075 516 
Q 1375 441 1709 441 
Q 2250 441 2565 725 
Q 2881 1009 2881 1497 
Q 2881 1984 2565 2268 
Q 2250 2553 1709 2553 
Q 1456 2553 1204 2497 
Q 953 2441 691 2322 
L 691 4666 
z
" transform="scale(0.015625)"/>
      </defs>
      <use xlink:href="#DejaVuSans-4d"/>
      <use xlink:href="#DejaVuSans-65" x="86.279297"/>
      <use xlink:href="#DejaVuSans-64" x="147.802734"/>
      <use xlink:href="#DejaVuSans-69" x="211.279297"/>
      <use xlink:href="#DejaVuSans-61" x="239.0625"/>
      <use xlink:href="#DejaVuSans-20" x="300.341797"/>
      <use xlink:href="#DejaVuSans-6d" x="332.128906"/>
      <use xlink:href="#DejaVuSans-f3" x="429.541016"/>
      <use xlink:href="#DejaVuSans-76" x="490.722656"/>
      <use xlink:href="#DejaVuSans-69" x="549.902344"/>
      <use xlink:href="#DejaVuSans-6c" x="577.685547"/>
      <use xlink:href="#DejaVuSans-20" x="605.46875"/>
      <use xlink:href="#DejaVuSans-28" x="637.255859"/>
      <use xlink:href="#DejaVuSans-35" x="676.269531"/>
      <use xlink:href="#DejaVuSans-29" x="739.892578"/>
     </g>
    </g>
   </g>
  </g>
 </g>
 <defs>
  <clipPath id="pcd2b069a36">
   <rect x="49.842188" y="23.229937" width="653.29" height="343.761323"/>
  </clipPath>
 </defs>
</svg>
